<svg xmlns="http://www.w3.org/2000/svg" xmlns:xlink="http://www.w3.org/1999/xlink" width="300" zoomAndPan="magnify" viewBox="0 0 224.87999 225" height="300" preserveAspectRatio="xMidYMid meet" version="1.0"><defs><g/><clipPath id="id1"><path d="M 68 65.785156 L 157.414062 65.785156 L 157.414062 116 L 68 116 Z M 68 65.785156 " clip-rule="nonzero"/></clipPath><clipPath id="id2"><path d="M 67.464844 84 L 156 84 L 156 123 L 67.464844 123 Z M 67.464844 84 " clip-rule="nonzero"/></clipPath><clipPath id="id3"><path d="M 67.464844 108 L 156 108 L 156 123 L 67.464844 123 Z M 67.464844 108 " clip-rule="nonzero"/></clipPath></defs><g clip-path="url(#id1)"><path fill="#009ce6" d="M 112.734375 65.917969 L 109.757812 68.898438 L 109.757812 68.902344 L 106.03125 72.632812 L 104.632812 74.035156 L 107.613281 77.019531 L 109.011719 75.617188 L 112.738281 71.882812 L 145.066406 104.257812 L 148.046875 101.273438 L 115.714844 68.902344 L 112.738281 65.917969 Z M 101.265625 74.117188 L 75.90625 99.503906 L 76.734375 100.625 L 102.382812 74.945312 Z M 103.007812 75.617188 L 77.40625 101.253906 C 77.390625 101.265625 77.390625 101.285156 77.40625 101.296875 L 78.308594 102.203125 C 80.160156 101.285156 82.273438 100.511719 84.6875 99.972656 C 86.15625 98.5 86.464844 98.191406 88.59375 96.058594 C 91.847656 92.800781 97.734375 98.695312 97.734375 98.695312 C 97.746094 98.703125 97.753906 98.703125 97.761719 98.695312 L 98.28125 98.179688 L 99.804688 99.707031 C 101.996094 100.027344 104.09375 100.464844 106.101562 100.972656 L 102.445312 97.460938 L 101.585938 98.324219 L 99.9375 96.519531 L 100.457031 96 C 100.464844 95.992188 100.464844 95.980469 100.457031 95.972656 C 100.457031 95.972656 94.570312 90.074219 97.820312 86.820312 C 102.285156 82.347656 106.007812 78.621094 106.007812 78.621094 C 106.023438 78.609375 106.023438 78.589844 106.007812 78.578125 L 103.054688 75.617188 C 103.042969 75.601562 103.019531 75.601562 103.007812 75.617188 Z M 92.363281 101.414062 C 72.953125 101.492188 68.933594 115.585938 68.933594 115.585938 C 79.429688 103.96875 90.226562 101.96875 117.136719 111.984375 C 144.050781 121.992188 157.453125 103.105469 157.453125 103.105469 C 131.722656 120.410156 119.402344 103.644531 96.457031 101.597656 C 95.023438 101.46875 93.660156 101.410156 92.363281 101.414062 Z M 92.363281 101.414062 " fill-opacity="1" fill-rule="nonzero"/></g><g clip-path="url(#id2)"><path fill="#009ce6" d="M 112.261719 84.367188 L 108.613281 88.027344 L 108.613281 89.644531 L 112.261719 89.644531 Z M 113.21875 84.375 L 113.21875 89.644531 L 116.867188 89.644531 L 116.867188 88.027344 Z M 108.613281 94.253906 L 112.261719 94.253906 L 112.261719 90.601562 L 108.613281 90.601562 Z M 113.21875 94.253906 L 116.867188 94.253906 L 116.867188 90.601562 L 113.21875 90.601562 Z M 90.894531 108.777344 C 71.484375 108.855469 67.464844 122.945312 67.464844 122.945312 C 77.960938 111.328125 88.753906 109.332031 115.667969 119.34375 C 142.582031 129.355469 155.984375 110.464844 155.984375 110.464844 C 130.253906 127.773438 117.933594 111.003906 94.984375 108.957031 C 93.550781 108.832031 92.191406 108.773438 90.894531 108.777344 Z M 90.894531 108.777344 " fill-opacity="1" fill-rule="nonzero"/></g><g clip-path="url(#id3)"><path fill="#009ce6" d="M 90.894531 108.777344 C 71.484375 108.855469 67.464844 122.945312 67.464844 122.945312 C 77.648438 111.671875 88.113281 109.460938 113.316406 118.488281 C 113.496094 117.890625 113.621094 117.421875 113.589844 117.601562 C 113.609375 117.480469 113.640625 117.363281 113.683594 117.25 C 113.953125 116.496094 114.816406 115.730469 115.585938 115.546875 C 116.355469 115.363281 116.9375 115.492188 117.472656 115.644531 C 118.101562 115.828125 118.753906 116.128906 119.292969 116.703125 C 119.4375 116.855469 119.519531 117.0625 119.628906 117.246094 C 119.804688 116.769531 120.183594 116.242188 120.679688 115.902344 C 112.808594 113.460938 104.886719 109.839844 94.984375 108.957031 C 93.550781 108.828125 92.191406 108.773438 90.894531 108.777344 Z M 155.984375 110.464844 C 143.628906 118.773438 134.363281 119.222656 125.535156 117.222656 C 125.777344 117.644531 125.9375 118.128906 125.992188 118.59375 C 126.050781 119.054688 126.011719 119.546875 125.871094 119.964844 C 125.761719 120.335938 125.546875 121 125.257812 121.855469 C 145.765625 124.863281 155.984375 110.464844 155.984375 110.464844 Z M 155.984375 110.464844 " fill-opacity="1" fill-rule="nonzero"/></g><g fill="#0e3f57" fill-opacity="1"><g transform="translate(68.000604, 146.720291)"><g><path d="M 0.8125 -4.03125 L 0.8125 -8.671875 C 0.8125 -10.097656 1.195312 -11.140625 1.96875 -11.796875 C 2.75 -12.460938 3.765625 -12.796875 5.015625 -12.796875 C 6.296875 -12.796875 7.347656 -12.488281 8.171875 -11.875 C 8.992188 -11.257812 9.40625 -10.40625 9.40625 -9.3125 C 9.40625 -8.8125 9.300781 -8.46875 9.09375 -8.28125 C 8.882812 -8.101562 8.535156 -8.015625 8.046875 -8.015625 C 7.160156 -8.015625 6.703125 -8.289062 6.671875 -8.84375 C 6.640625 -9.894531 6.117188 -10.421875 5.109375 -10.421875 C 4.054688 -10.421875 3.53125 -9.835938 3.53125 -8.671875 L 3.53125 -4.03125 C 3.53125 -2.863281 4.0625 -2.28125 5.125 -2.28125 C 5.457031 -2.28125 5.726562 -2.332031 5.9375 -2.4375 C 6.15625 -2.539062 6.3125 -2.695312 6.40625 -2.90625 C 6.5 -3.125 6.5625 -3.300781 6.59375 -3.4375 C 6.625 -3.582031 6.648438 -3.78125 6.671875 -4.03125 C 6.722656 -4.582031 7.171875 -4.859375 8.015625 -4.859375 C 8.523438 -4.859375 8.882812 -4.765625 9.09375 -4.578125 C 9.300781 -4.398438 9.40625 -4.0625 9.40625 -3.5625 C 9.40625 -2.425781 8.992188 -1.53125 8.171875 -0.875 C 7.347656 -0.21875 6.296875 0.109375 5.015625 0.109375 C 3.765625 0.109375 2.75 -0.222656 1.96875 -0.890625 C 1.195312 -1.554688 0.8125 -2.601562 0.8125 -4.03125 Z M 0.8125 -4.03125 "/></g></g></g><g fill="#0e3f57" fill-opacity="1"><g transform="translate(77.836124, 146.720291)"><g><path d="M 0.953125 -0.84375 L 0.953125 -11.984375 C 0.953125 -12.253906 1.082031 -12.457031 1.34375 -12.59375 C 1.613281 -12.726562 1.9375 -12.796875 2.3125 -12.796875 C 2.6875 -12.796875 3.003906 -12.726562 3.265625 -12.59375 C 3.535156 -12.457031 3.671875 -12.253906 3.671875 -11.984375 L 3.671875 -2.375 L 7.671875 -2.375 C 7.921875 -2.375 8.113281 -2.257812 8.25 -2.03125 C 8.382812 -1.800781 8.453125 -1.519531 8.453125 -1.1875 C 8.453125 -0.863281 8.382812 -0.582031 8.25 -0.34375 C 8.113281 -0.113281 7.921875 0 7.671875 0 L 2.140625 0 C 1.804688 0 1.523438 -0.0703125 1.296875 -0.21875 C 1.066406 -0.363281 0.953125 -0.570312 0.953125 -0.84375 Z M 0.953125 -0.84375 "/></g></g></g><g fill="#0e3f57" fill-opacity="1"><g transform="translate(86.44658, 146.720291)"><g><path d="M 0.953125 -0.84375 L 0.953125 -11.96875 C 0.953125 -12.226562 1.066406 -12.429688 1.296875 -12.578125 C 1.523438 -12.722656 1.804688 -12.796875 2.140625 -12.796875 L 8.375 -12.796875 C 8.644531 -12.796875 8.847656 -12.679688 8.984375 -12.453125 C 9.128906 -12.222656 9.203125 -11.945312 9.203125 -11.625 C 9.203125 -11.289062 9.128906 -11.003906 8.984375 -10.765625 C 8.835938 -10.535156 8.632812 -10.421875 8.375 -10.421875 L 3.671875 -10.421875 L 3.671875 -7.46875 L 6.3125 -7.46875 C 6.5625 -7.46875 6.757812 -7.359375 6.90625 -7.140625 C 7.050781 -6.929688 7.125 -6.679688 7.125 -6.390625 C 7.125 -6.117188 7.050781 -5.878906 6.90625 -5.671875 C 6.769531 -5.460938 6.570312 -5.359375 6.3125 -5.359375 L 3.671875 -5.359375 L 3.671875 -2.375 L 8.375 -2.375 C 8.632812 -2.375 8.835938 -2.257812 8.984375 -2.03125 C 9.128906 -1.800781 9.203125 -1.515625 9.203125 -1.171875 C 9.203125 -0.859375 9.128906 -0.582031 8.984375 -0.34375 C 8.847656 -0.113281 8.644531 0 8.375 0 L 2.140625 0 C 1.804688 0 1.523438 -0.0703125 1.296875 -0.21875 C 1.066406 -0.363281 0.953125 -0.570312 0.953125 -0.84375 Z M 0.953125 -0.84375 "/></g></g></g><g fill="#0e3f57" fill-opacity="1"><g transform="translate(95.879579, 146.720291)"><g><path d="M 0.0625 -1.125 C 0.0625 -1.15625 0.078125 -1.21875 0.109375 -1.3125 L 3.359375 -12 C 3.453125 -12.289062 3.664062 -12.515625 4 -12.671875 C 4.332031 -12.828125 4.710938 -12.90625 5.140625 -12.90625 C 5.578125 -12.90625 5.960938 -12.828125 6.296875 -12.671875 C 6.628906 -12.515625 6.84375 -12.289062 6.9375 -12 L 10.21875 -1.3125 C 10.238281 -1.21875 10.25 -1.15625 10.25 -1.125 C 10.25 -0.820312 10.054688 -0.554688 9.671875 -0.328125 C 9.296875 -0.109375 8.90625 0 8.5 0 C 7.988281 0 7.691406 -0.171875 7.609375 -0.515625 L 7 -2.703125 L 3.3125 -2.703125 L 2.71875 -0.515625 C 2.625 -0.171875 2.328125 0 1.828125 0 C 1.410156 0 1.007812 -0.109375 0.625 -0.328125 C 0.25 -0.554688 0.0625 -0.820312 0.0625 -1.125 Z M 3.875 -4.796875 L 6.421875 -4.796875 L 5.15625 -9.5 Z M 3.875 -4.796875 "/></g></g></g><g fill="#0e3f57" fill-opacity="1"><g transform="translate(106.187618, 146.720291)"><g><path d="M 0.953125 -0.84375 L 0.953125 -11.984375 C 0.953125 -12.203125 1.03125 -12.390625 1.1875 -12.546875 C 1.34375 -12.710938 1.539062 -12.796875 1.78125 -12.796875 L 5.40625 -12.796875 C 8.28125 -12.796875 9.71875 -11.550781 9.71875 -9.0625 C 9.71875 -7.238281 9.015625 -6.050781 7.609375 -5.5 L 9.734375 -1.625 C 9.796875 -1.539062 9.828125 -1.4375 9.828125 -1.3125 C 9.828125 -0.976562 9.640625 -0.65625 9.265625 -0.34375 C 8.898438 -0.0390625 8.515625 0.109375 8.109375 0.109375 C 7.703125 0.109375 7.410156 -0.0625 7.234375 -0.40625 L 4.828125 -5.0625 L 3.671875 -5.0625 L 3.671875 -0.84375 C 3.671875 -0.570312 3.535156 -0.363281 3.265625 -0.21875 C 3.003906 -0.0703125 2.6875 0 2.3125 0 C 1.9375 0 1.613281 -0.0703125 1.34375 -0.21875 C 1.082031 -0.363281 0.953125 -0.570312 0.953125 -0.84375 Z M 3.671875 -7.15625 L 5.40625 -7.15625 C 5.925781 -7.15625 6.316406 -7.28125 6.578125 -7.53125 C 6.847656 -7.789062 6.984375 -8.210938 6.984375 -8.796875 C 6.984375 -9.378906 6.847656 -9.796875 6.578125 -10.046875 C 6.316406 -10.296875 5.925781 -10.421875 5.40625 -10.421875 L 3.671875 -10.421875 Z M 3.671875 -7.15625 "/></g></g></g><g fill="#0e3f57" fill-opacity="1"><g transform="translate(116.408152, 146.720291)"><g><path d="M 0.0625 -11.6875 C 0.0625 -11.988281 0.25 -12.25 0.625 -12.46875 C 1.007812 -12.6875 1.410156 -12.796875 1.828125 -12.796875 C 2.328125 -12.796875 2.625 -12.628906 2.71875 -12.296875 L 5.171875 -3.3125 L 7.609375 -12.296875 C 7.691406 -12.628906 7.988281 -12.796875 8.5 -12.796875 C 8.90625 -12.796875 9.296875 -12.6875 9.671875 -12.46875 C 10.054688 -12.25 10.25 -11.988281 10.25 -11.6875 C 10.25 -11.644531 10.238281 -11.578125 10.21875 -11.484375 L 6.953125 -0.8125 C 6.859375 -0.519531 6.644531 -0.289062 6.3125 -0.125 C 5.976562 0.03125 5.59375 0.109375 5.15625 0.109375 C 4.726562 0.109375 4.347656 0.03125 4.015625 -0.125 C 3.679688 -0.289062 3.46875 -0.519531 3.375 -0.8125 L 0.109375 -11.484375 C 0.078125 -11.578125 0.0625 -11.644531 0.0625 -11.6875 Z M 0.0625 -11.6875 "/></g></g></g><g fill="#0e3f57" fill-opacity="1"><g transform="translate(126.716191, 146.720291)"><g><path d="M 0.953125 -0.84375 L 0.953125 -11.984375 C 0.953125 -12.253906 1.082031 -12.457031 1.34375 -12.59375 C 1.613281 -12.726562 1.9375 -12.796875 2.3125 -12.796875 C 2.6875 -12.796875 3.003906 -12.726562 3.265625 -12.59375 C 3.535156 -12.457031 3.671875 -12.253906 3.671875 -11.984375 L 3.671875 -0.84375 C 3.671875 -0.570312 3.535156 -0.363281 3.265625 -0.21875 C 3.003906 -0.0703125 2.6875 0 2.3125 0 C 1.9375 0 1.613281 -0.0703125 1.34375 -0.21875 C 1.082031 -0.363281 0.953125 -0.570312 0.953125 -0.84375 Z M 0.953125 -0.84375 "/></g></g></g><g fill="#0e3f57" fill-opacity="1"><g transform="translate(131.33643, 146.720291)"><g><path d="M 0.953125 -0.84375 L 0.953125 -11.96875 C 0.953125 -12.226562 1.066406 -12.429688 1.296875 -12.578125 C 1.523438 -12.722656 1.804688 -12.796875 2.140625 -12.796875 L 8.375 -12.796875 C 8.644531 -12.796875 8.847656 -12.679688 8.984375 -12.453125 C 9.128906 -12.222656 9.203125 -11.945312 9.203125 -11.625 C 9.203125 -11.289062 9.128906 -11.003906 8.984375 -10.765625 C 8.835938 -10.535156 8.632812 -10.421875 8.375 -10.421875 L 3.671875 -10.421875 L 3.671875 -7.46875 L 6.3125 -7.46875 C 6.5625 -7.46875 6.757812 -7.359375 6.90625 -7.140625 C 7.050781 -6.929688 7.125 -6.679688 7.125 -6.390625 C 7.125 -6.117188 7.050781 -5.878906 6.90625 -5.671875 C 6.769531 -5.460938 6.570312 -5.359375 6.3125 -5.359375 L 3.671875 -5.359375 L 3.671875 -2.375 L 8.375 -2.375 C 8.632812 -2.375 8.835938 -2.257812 8.984375 -2.03125 C 9.128906 -1.800781 9.203125 -1.515625 9.203125 -1.171875 C 9.203125 -0.859375 9.128906 -0.582031 8.984375 -0.34375 C 8.847656 -0.113281 8.644531 0 8.375 0 L 2.140625 0 C 1.804688 0 1.523438 -0.0703125 1.296875 -0.21875 C 1.066406 -0.363281 0.953125 -0.570312 0.953125 -0.84375 Z M 0.953125 -0.84375 "/></g></g></g><g fill="#0e3f57" fill-opacity="1"><g transform="translate(140.769429, 146.720291)"><g><path d="M 0.046875 -11.71875 C 0.046875 -12 0.234375 -12.25 0.609375 -12.46875 C 0.992188 -12.6875 1.398438 -12.796875 1.828125 -12.796875 C 2.316406 -12.796875 2.609375 -12.628906 2.703125 -12.296875 L 5.359375 -3.3125 L 6.75 -9.234375 C 6.789062 -9.453125 6.9375 -9.625 7.1875 -9.75 C 7.445312 -9.882812 7.734375 -9.953125 8.046875 -9.953125 C 8.367188 -9.953125 8.65625 -9.882812 8.90625 -9.75 C 9.164062 -9.625 9.320312 -9.453125 9.375 -9.234375 L 10.75 -3.3125 L 13.421875 -12.296875 C 13.515625 -12.628906 13.804688 -12.796875 14.296875 -12.796875 C 14.710938 -12.796875 15.109375 -12.6875 15.484375 -12.46875 C 15.867188 -12.25 16.0625 -12 16.0625 -11.71875 C 16.0625 -11.632812 16.050781 -11.554688 16.03125 -11.484375 L 12.546875 -0.8125 C 12.441406 -0.519531 12.222656 -0.289062 11.890625 -0.125 C 11.554688 0.03125 11.171875 0.109375 10.734375 0.109375 C 10.304688 0.109375 9.921875 0.03125 9.578125 -0.125 C 9.242188 -0.289062 9.039062 -0.519531 8.96875 -0.8125 L 8.0625 -4.953125 L 7.140625 -0.8125 C 7.078125 -0.519531 6.875 -0.289062 6.53125 -0.125 C 6.195312 0.03125 5.8125 0.109375 5.375 0.109375 C 4.945312 0.109375 4.5625 0.03125 4.21875 -0.125 C 3.882812 -0.289062 3.671875 -0.519531 3.578125 -0.8125 L 0.09375 -11.484375 C 0.0625 -11.554688 0.046875 -11.632812 0.046875 -11.71875 Z M 0.046875 -11.71875 "/></g></g></g><g fill="#0e3f57" fill-opacity="1"><g transform="translate(49.594267, 164.314768)"><g><path d="M 13.664062 -10.945312 L 10.855469 -1.953125 L 8.191406 -10.945312 L 6.550781 -10.945312 L 3.921875 -1.96875 L 1.132812 -10.945312 L -0.109375 -10.945312 L 3.320312 0 L 4.5625 0 L 7.371094 -9.707031 L 10.234375 0 L 11.457031 0 L 14.867188 -10.945312 Z M 13.664062 -10.945312 "/></g></g></g><g fill="#0e3f57" fill-opacity="1"><g transform="translate(64.340469, 164.314768)"><g><path d="M 2.042969 -8.664062 C 2.460938 -8.664062 2.828125 -9.011719 2.828125 -9.433594 C 2.828125 -9.886719 2.460938 -10.214844 2.042969 -10.214844 C 1.605469 -10.214844 1.242188 -9.886719 1.242188 -9.433594 C 1.242188 -9.011719 1.605469 -8.664062 2.042969 -8.664062 Z M 1.476562 0 L 2.609375 0 L 2.609375 -7.296875 L 1.476562 -7.296875 Z M 1.476562 0 "/></g></g></g><g fill="#0e3f57" fill-opacity="1"><g transform="translate(68.405249, 164.314768)"><g><path d="M 4.234375 -7.441406 C 3.558594 -7.441406 2.9375 -7.167969 2.460938 -6.714844 L 2.460938 -7.296875 L 1.332031 -7.296875 L 1.332031 0 L 2.460938 0 L 2.460938 -4.652344 C 2.460938 -5.582031 3.210938 -6.3125 4.140625 -6.3125 C 5.070312 -6.3125 5.800781 -5.582031 5.800781 -4.652344 L 5.800781 0 L 6.933594 0 L 6.933594 -4.652344 C 6.933594 -6.203125 5.636719 -7.441406 4.234375 -7.441406 Z M 4.234375 -7.441406 "/></g></g></g><g fill="#0e3f57" fill-opacity="1"><g transform="translate(76.571252, 164.314768)"><g><path d="M 7.277344 -13.425781 L 7.277344 -6.347656 C 6.585938 -7.023438 5.65625 -7.441406 4.617188 -7.441406 C 2.519531 -7.441406 0.820312 -5.746094 0.820312 -3.648438 C 0.820312 -1.550781 2.519531 0.144531 4.617188 0.144531 C 5.65625 0.144531 6.585938 -0.273438 7.277344 -0.949219 L 7.277344 0 L 8.410156 0 L 8.410156 -13.425781 Z M 4.617188 -0.984375 C 3.136719 -0.984375 1.953125 -2.171875 1.953125 -3.648438 C 1.953125 -5.125 3.136719 -6.3125 4.617188 -6.3125 C 6.074219 -6.3125 7.277344 -5.125 7.277344 -3.648438 C 7.277344 -2.171875 6.074219 -0.984375 4.617188 -0.984375 Z M 4.617188 -0.984375 "/></g></g></g><g fill="#0e3f57" fill-opacity="1"><g transform="translate(86.304836, 164.314768)"><g><path d="M 4.617188 0.144531 C 6.714844 0.144531 8.410156 -1.550781 8.410156 -3.648438 C 8.410156 -5.746094 6.714844 -7.441406 4.617188 -7.441406 C 2.519531 -7.441406 0.820312 -5.746094 0.820312 -3.648438 C 0.820312 -1.550781 2.519531 0.144531 4.617188 0.144531 Z M 4.617188 -0.984375 C 3.136719 -0.984375 1.953125 -2.171875 1.953125 -3.648438 C 1.953125 -5.125 3.136719 -6.3125 4.617188 -6.3125 C 6.074219 -6.3125 7.277344 -5.125 7.277344 -3.648438 C 7.277344 -2.171875 6.074219 -0.984375 4.617188 -0.984375 Z M 4.617188 -0.984375 "/></g></g></g><g fill="#0e3f57" fill-opacity="1"><g transform="translate(95.528051, 164.314768)"><g><path d="M 10.324219 -7.296875 L 8.390625 -1.3125 L 6.402344 -7.296875 L 5.328125 -7.296875 L 3.339844 -1.351562 L 1.441406 -7.296875 L 0.164062 -7.296875 L 2.683594 0 L 3.921875 0 L 5.875 -5.726562 L 7.808594 0 L 9.046875 0 L 11.546875 -7.296875 Z M 10.324219 -7.296875 "/></g></g></g><g fill="#0e3f57" fill-opacity="1"><g transform="translate(107.230228, 164.314768)"><g/></g></g><g fill="#0e3f57" fill-opacity="1"><g transform="translate(111.623101, 164.314768)"><g><path d="M 6.511719 0.144531 C 8.609375 0.144531 10.433594 -1.003906 11.402344 -2.699219 L 10.398438 -3.265625 C 9.652344 -1.914062 8.191406 -1.023438 6.511719 -1.023438 C 4.050781 -1.023438 2.0625 -2.992188 2.0625 -5.472656 C 2.0625 -7.953125 4.050781 -9.925781 6.511719 -9.925781 C 8.191406 -9.925781 9.652344 -9.03125 10.398438 -7.679688 L 11.402344 -8.246094 C 10.433594 -9.941406 8.609375 -11.09375 6.511719 -11.09375 C 3.410156 -11.09375 0.894531 -8.574219 0.894531 -5.472656 C 0.894531 -2.371094 3.410156 0.144531 6.511719 0.144531 Z M 6.511719 0.144531 "/></g></g></g><g fill="#0e3f57" fill-opacity="1"><g transform="translate(123.616912, 164.314768)"><g><path d="M 1.332031 0 L 2.460938 0 L 2.460938 -13.425781 L 1.332031 -13.425781 Z M 1.332031 0 "/></g></g></g><g fill="#0e3f57" fill-opacity="1"><g transform="translate(127.408278, 164.314768)"><g><path d="M 8.410156 -3.722656 C 8.355469 -5.820312 6.695312 -7.441406 4.617188 -7.441406 C 2.519531 -7.441406 0.820312 -5.746094 0.820312 -3.648438 C 0.820312 -1.550781 2.519531 0.144531 4.617188 0.144531 C 6.347656 0.144531 7.789062 -1.003906 8.265625 -2.574219 L 7.058594 -2.574219 C 6.660156 -1.625 5.710938 -0.984375 4.617188 -0.984375 C 3.175781 -0.984375 2.023438 -2.078125 1.953125 -3.484375 L 8.390625 -3.484375 Z M 4.617188 -6.3125 C 5.78125 -6.3125 6.769531 -5.5625 7.113281 -4.507812 L 2.097656 -4.507812 C 2.460938 -5.5625 3.449219 -6.3125 4.617188 -6.3125 Z M 4.617188 -6.3125 "/></g></g></g><g fill="#0e3f57" fill-opacity="1"><g transform="translate(136.558577, 164.314768)"><g><path d="M 9.15625 -0.949219 C 8.757812 -0.949219 8.410156 -1.222656 8.410156 -1.898438 L 8.410156 -7.296875 L 7.277344 -7.296875 L 7.277344 -6.347656 C 6.605469 -7.023438 5.65625 -7.441406 4.617188 -7.441406 C 2.519531 -7.441406 0.820312 -5.746094 0.820312 -3.648438 C 0.820312 -1.550781 2.519531 0.144531 4.617188 0.144531 C 5.710938 0.144531 6.695312 -0.363281 7.386719 -1.113281 C 7.625 -0.363281 8.210938 0.144531 9.066406 0.144531 C 9.269531 0.144531 9.46875 0.0898438 9.613281 0 L 9.613281 -0.949219 Z M 4.617188 -0.984375 C 3.136719 -0.984375 1.953125 -2.171875 1.953125 -3.648438 C 1.953125 -5.125 3.136719 -6.3125 4.617188 -6.3125 C 6.074219 -6.3125 7.277344 -5.125 7.277344 -3.648438 C 7.277344 -2.171875 6.074219 -0.984375 4.617188 -0.984375 Z M 4.617188 -0.984375 "/></g></g></g><g fill="#0e3f57" fill-opacity="1"><g transform="translate(146.383299, 164.314768)"><g><path d="M 4.234375 -7.441406 C 3.558594 -7.441406 2.9375 -7.167969 2.460938 -6.714844 L 2.460938 -7.296875 L 1.332031 -7.296875 L 1.332031 0 L 2.460938 0 L 2.460938 -4.652344 C 2.460938 -5.582031 3.210938 -6.3125 4.140625 -6.3125 C 5.070312 -6.3125 5.800781 -5.582031 5.800781 -4.652344 L 5.800781 0 L 6.933594 0 L 6.933594 -4.652344 C 6.933594 -6.203125 5.636719 -7.441406 4.234375 -7.441406 Z M 4.234375 -7.441406 "/></g></g></g><g fill="#0e3f57" fill-opacity="1"><g transform="translate(154.549301, 164.314768)"><g><path d="M 8.410156 -3.722656 C 8.355469 -5.820312 6.695312 -7.441406 4.617188 -7.441406 C 2.519531 -7.441406 0.820312 -5.746094 0.820312 -3.648438 C 0.820312 -1.550781 2.519531 0.144531 4.617188 0.144531 C 6.347656 0.144531 7.789062 -1.003906 8.265625 -2.574219 L 7.058594 -2.574219 C 6.660156 -1.625 5.710938 -0.984375 4.617188 -0.984375 C 3.175781 -0.984375 2.023438 -2.078125 1.953125 -3.484375 L 8.390625 -3.484375 Z M 4.617188 -6.3125 C 5.78125 -6.3125 6.769531 -5.5625 7.113281 -4.507812 L 2.097656 -4.507812 C 2.460938 -5.5625 3.449219 -6.3125 4.617188 -6.3125 Z M 4.617188 -6.3125 "/></g></g></g><g fill="#0e3f57" fill-opacity="1"><g transform="translate(163.6996, 164.314768)"><g><path d="M 4.890625 -7.441406 C 3.847656 -7.441406 3.011719 -6.988281 2.460938 -6.257812 L 2.460938 -7.296875 L 1.332031 -7.296875 L 1.332031 0 L 2.460938 0 L 2.460938 -3.957031 C 2.460938 -5.289062 3.558594 -6.3125 4.890625 -6.3125 C 5.109375 -6.3125 5.289062 -6.292969 5.453125 -6.238281 L 5.453125 -7.386719 C 5.289062 -7.425781 5.109375 -7.441406 4.890625 -7.441406 Z M 4.890625 -7.441406 "/></g></g></g><g fill="#0e3f57" fill-opacity="1"><g transform="translate(169.240824, 164.314768)"><g><path d="M 3.136719 0.144531 C 4.414062 0.144531 5.472656 -0.710938 5.472656 -1.96875 C 5.472656 -3.285156 4.378906 -3.792969 3.429688 -4.179688 C 2.535156 -4.5625 2.078125 -4.761719 2.078125 -5.398438 C 2.078125 -6.019531 2.5 -6.3125 3.101562 -6.3125 C 3.574219 -6.3125 3.996094 -6.113281 4.195312 -5.726562 L 5.179688 -6.238281 C 4.90625 -6.894531 3.976562 -7.441406 3.046875 -7.441406 C 1.96875 -7.441406 0.929688 -6.695312 0.929688 -5.363281 C 0.929688 -4.214844 1.695312 -3.628906 2.992188 -3.136719 C 3.867188 -2.792969 4.34375 -2.554688 4.34375 -1.96875 C 4.34375 -1.332031 3.792969 -0.96875 3.136719 -0.96875 C 2.460938 -0.96875 1.804688 -1.351562 1.695312 -1.878906 L 0.601562 -1.441406 C 0.875 -0.566406 1.96875 0.144531 3.136719 0.144531 Z M 3.136719 0.144531 "/></g></g></g></svg>