<svg xmlns="http://www.w3.org/2000/svg" xmlns:xlink="http://www.w3.org/1999/xlink" width="200" zoomAndPan="magnify" viewBox="0 0 150 149.999998" height="200" preserveAspectRatio="xMidYMid meet" version="1.0"><defs><g/><clipPath id="id1"><path d="M 45 43.839844 L 105 43.839844 L 105 78 L 45 78 Z M 45 43.839844 " clip-rule="nonzero"/></clipPath></defs><g clip-path="url(#id1)"><path fill="#009ce6" d="M 75.195312 43.929688 L 73.210938 45.929688 L 70.726562 48.433594 L 69.792969 49.375 L 71.78125 51.375 L 72.710938 50.4375 L 75.199219 47.929688 L 96.765625 69.652344 L 98.75 67.652344 L 77.183594 45.929688 L 75.199219 43.929688 Z M 67.546875 49.429688 L 50.632812 66.464844 L 51.183594 67.214844 L 68.289062 49.984375 Z M 68.710938 50.4375 L 51.628906 67.636719 C 51.621094 67.644531 51.621094 67.660156 51.628906 67.667969 L 52.234375 68.273438 C 53.46875 67.660156 54.878906 67.140625 56.488281 66.777344 C 57.46875 65.789062 57.671875 65.582031 59.09375 64.152344 C 61.261719 61.964844 65.191406 65.921875 65.191406 65.921875 C 65.199219 65.925781 65.203125 65.925781 65.210938 65.921875 L 65.554688 65.574219 L 66.574219 66.597656 C 68.035156 66.816406 69.433594 67.109375 70.773438 67.449219 L 68.332031 65.09375 L 67.757812 65.671875 L 66.660156 64.460938 L 67.007812 64.113281 C 67.011719 64.105469 67.011719 64.101562 67.007812 64.09375 C 67.007812 64.09375 63.078125 60.136719 65.25 57.953125 C 68.226562 54.953125 70.710938 52.453125 70.710938 52.453125 C 70.71875 52.441406 70.71875 52.429688 70.710938 52.421875 L 68.738281 50.4375 C 68.730469 50.425781 68.71875 50.425781 68.710938 50.4375 Z M 61.609375 67.746094 C 48.664062 67.796875 45.980469 77.253906 45.980469 77.253906 C 52.980469 69.457031 60.183594 68.117188 78.132812 74.835938 C 96.085938 81.554688 105.023438 68.878906 105.023438 68.878906 C 87.863281 80.492188 79.644531 69.242188 64.339844 67.867188 C 63.382812 67.78125 62.472656 67.742188 61.609375 67.746094 Z M 61.609375 67.746094 " fill-opacity="1" fill-rule="nonzero"/></g><path fill="#009ce6" d="M 74.878906 56.308594 L 72.445312 58.765625 L 72.445312 59.847656 L 74.878906 59.847656 Z M 75.519531 56.3125 L 75.519531 59.847656 L 77.953125 59.847656 L 77.953125 58.765625 Z M 72.445312 62.941406 L 74.878906 62.941406 L 74.878906 60.492188 L 72.445312 60.492188 Z M 75.519531 62.941406 L 77.953125 62.941406 L 77.953125 60.492188 L 75.519531 60.492188 Z M 60.628906 72.683594 C 47.683594 72.738281 45 82.191406 45 82.191406 C 52 74.394531 59.203125 73.058594 77.152344 79.773438 C 95.105469 86.492188 104.042969 73.816406 104.042969 73.816406 C 86.882812 85.429688 78.664062 74.179688 63.355469 72.804688 C 62.402344 72.722656 61.492188 72.683594 60.628906 72.683594 Z M 60.628906 72.683594 " fill-opacity="1" fill-rule="nonzero"/><path fill="#009ce6" d="M 60.628906 72.683594 C 47.683594 72.738281 45 82.191406 45 82.191406 C 51.792969 74.628906 58.773438 73.144531 75.585938 79.199219 C 75.703125 78.800781 75.785156 78.484375 75.765625 78.605469 C 75.78125 78.523438 75.800781 78.445312 75.828125 78.367188 C 76.011719 77.863281 76.585938 77.351562 77.097656 77.226562 C 77.609375 77.105469 78 77.191406 78.355469 77.292969 C 78.777344 77.414062 79.210938 77.617188 79.574219 78.003906 C 79.667969 78.105469 79.722656 78.242188 79.796875 78.367188 C 79.914062 78.046875 80.164062 77.695312 80.496094 77.464844 C 75.246094 75.828125 69.960938 73.398438 63.355469 72.804688 C 62.402344 72.71875 61.492188 72.683594 60.628906 72.683594 Z M 104.042969 73.816406 C 95.804688 79.394531 89.625 79.695312 83.734375 78.351562 C 83.898438 78.632812 84.003906 78.960938 84.039062 79.273438 C 84.078125 79.582031 84.050781 79.910156 83.957031 80.191406 C 83.886719 80.441406 83.742188 80.886719 83.550781 81.460938 C 97.230469 83.480469 104.042969 73.816406 104.042969 73.816406 Z M 104.042969 73.816406 " fill-opacity="1" fill-rule="nonzero"/><g fill="#0e3f57" fill-opacity="1"><g transform="translate(45.357929, 97.825696)"><g><path d="M 0.53125 -2.6875 L 0.53125 -5.78125 C 0.53125 -6.726562 0.789062 -7.421875 1.3125 -7.859375 C 1.832031 -8.304688 2.507812 -8.53125 3.34375 -8.53125 C 4.195312 -8.53125 4.894531 -8.320312 5.4375 -7.90625 C 5.988281 -7.5 6.265625 -6.929688 6.265625 -6.203125 C 6.265625 -5.867188 6.191406 -5.640625 6.046875 -5.515625 C 5.910156 -5.398438 5.679688 -5.34375 5.359375 -5.34375 C 4.773438 -5.34375 4.472656 -5.523438 4.453125 -5.890625 C 4.421875 -6.585938 4.070312 -6.9375 3.40625 -6.9375 C 2.707031 -6.9375 2.359375 -6.550781 2.359375 -5.78125 L 2.359375 -2.6875 C 2.359375 -1.90625 2.710938 -1.515625 3.421875 -1.515625 C 3.640625 -1.515625 3.816406 -1.550781 3.953125 -1.625 C 4.097656 -1.695312 4.203125 -1.800781 4.265625 -1.9375 C 4.328125 -2.082031 4.367188 -2.203125 4.390625 -2.296875 C 4.410156 -2.390625 4.429688 -2.519531 4.453125 -2.6875 C 4.484375 -3.050781 4.78125 -3.234375 5.34375 -3.234375 C 5.675781 -3.234375 5.910156 -3.171875 6.046875 -3.046875 C 6.191406 -2.929688 6.265625 -2.707031 6.265625 -2.375 C 6.265625 -1.613281 5.988281 -1.015625 5.4375 -0.578125 C 4.894531 -0.148438 4.195312 0.0625 3.34375 0.0625 C 2.507812 0.0625 1.832031 -0.15625 1.3125 -0.59375 C 0.789062 -1.039062 0.53125 -1.738281 0.53125 -2.6875 Z M 0.53125 -2.6875 "/></g></g></g><g fill="#0e3f57" fill-opacity="1"><g transform="translate(51.918441, 97.825696)"><g><path d="M 0.625 -0.5625 L 0.625 -7.984375 C 0.625 -8.160156 0.710938 -8.296875 0.890625 -8.390625 C 1.078125 -8.484375 1.296875 -8.53125 1.546875 -8.53125 C 1.796875 -8.53125 2.007812 -8.484375 2.1875 -8.390625 C 2.363281 -8.296875 2.453125 -8.160156 2.453125 -7.984375 L 2.453125 -1.59375 L 5.109375 -1.59375 C 5.273438 -1.59375 5.40625 -1.515625 5.5 -1.359375 C 5.59375 -1.203125 5.640625 -1.015625 5.640625 -0.796875 C 5.640625 -0.578125 5.59375 -0.390625 5.5 -0.234375 C 5.40625 -0.078125 5.273438 0 5.109375 0 L 1.421875 0 C 1.203125 0 1.015625 -0.046875 0.859375 -0.140625 C 0.703125 -0.242188 0.625 -0.382812 0.625 -0.5625 Z M 0.625 -0.5625 "/></g></g></g><g fill="#0e3f57" fill-opacity="1"><g transform="translate(57.661808, 97.825696)"><g><path d="M 0.625 -0.5625 L 0.625 -7.96875 C 0.625 -8.144531 0.703125 -8.28125 0.859375 -8.375 C 1.015625 -8.476562 1.203125 -8.53125 1.421875 -8.53125 L 5.578125 -8.53125 C 5.753906 -8.53125 5.890625 -8.453125 5.984375 -8.296875 C 6.078125 -8.140625 6.125 -7.957031 6.125 -7.75 C 6.125 -7.519531 6.070312 -7.328125 5.96875 -7.171875 C 5.875 -7.015625 5.742188 -6.9375 5.578125 -6.9375 L 2.453125 -6.9375 L 2.453125 -4.96875 L 4.203125 -4.96875 C 4.367188 -4.96875 4.5 -4.894531 4.59375 -4.75 C 4.695312 -4.613281 4.75 -4.453125 4.75 -4.265625 C 4.75 -4.078125 4.703125 -3.914062 4.609375 -3.78125 C 4.515625 -3.644531 4.378906 -3.578125 4.203125 -3.578125 L 2.453125 -3.578125 L 2.453125 -1.59375 L 5.578125 -1.59375 C 5.742188 -1.59375 5.875 -1.515625 5.96875 -1.359375 C 6.070312 -1.203125 6.125 -1.007812 6.125 -0.78125 C 6.125 -0.570312 6.078125 -0.390625 5.984375 -0.234375 C 5.890625 -0.078125 5.753906 0 5.578125 0 L 1.421875 0 C 1.203125 0 1.015625 -0.046875 0.859375 -0.140625 C 0.703125 -0.242188 0.625 -0.382812 0.625 -0.5625 Z M 0.625 -0.5625 "/></g></g></g><g fill="#0e3f57" fill-opacity="1"><g transform="translate(63.95383, 97.825696)"><g><path d="M 0.046875 -0.75 C 0.046875 -0.769531 0.0507812 -0.8125 0.0625 -0.875 L 2.234375 -8 C 2.296875 -8.1875 2.4375 -8.332031 2.65625 -8.4375 C 2.882812 -8.550781 3.140625 -8.609375 3.421875 -8.609375 C 3.710938 -8.609375 3.96875 -8.550781 4.1875 -8.4375 C 4.414062 -8.332031 4.5625 -8.1875 4.625 -8 L 6.796875 -0.875 C 6.816406 -0.8125 6.828125 -0.769531 6.828125 -0.75 C 6.828125 -0.539062 6.695312 -0.363281 6.4375 -0.21875 C 6.1875 -0.0703125 5.925781 0 5.65625 0 C 5.320312 0 5.125 -0.113281 5.0625 -0.34375 L 4.671875 -1.796875 L 2.203125 -1.796875 L 1.8125 -0.34375 C 1.75 -0.113281 1.550781 0 1.21875 0 C 0.945312 0 0.679688 -0.0703125 0.421875 -0.21875 C 0.171875 -0.363281 0.046875 -0.539062 0.046875 -0.75 Z M 2.578125 -3.203125 L 4.28125 -3.203125 L 3.4375 -6.328125 Z M 2.578125 -3.203125 "/></g></g></g><g fill="#0e3f57" fill-opacity="1"><g transform="translate(70.829523, 97.825696)"><g><path d="M 0.625 -0.5625 L 0.625 -7.984375 C 0.625 -8.128906 0.675781 -8.253906 0.78125 -8.359375 C 0.894531 -8.472656 1.03125 -8.53125 1.1875 -8.53125 L 3.609375 -8.53125 C 5.523438 -8.53125 6.484375 -7.695312 6.484375 -6.03125 C 6.484375 -4.820312 6.007812 -4.035156 5.0625 -3.671875 L 6.484375 -1.078125 C 6.523438 -1.023438 6.546875 -0.957031 6.546875 -0.875 C 6.546875 -0.644531 6.421875 -0.429688 6.171875 -0.234375 C 5.929688 -0.0351562 5.675781 0.0625 5.40625 0.0625 C 5.132812 0.0625 4.941406 -0.046875 4.828125 -0.265625 L 3.21875 -3.375 L 2.453125 -3.375 L 2.453125 -0.5625 C 2.453125 -0.382812 2.363281 -0.242188 2.1875 -0.140625 C 2.007812 -0.046875 1.796875 0 1.546875 0 C 1.296875 0 1.078125 -0.046875 0.890625 -0.140625 C 0.710938 -0.242188 0.625 -0.382812 0.625 -0.5625 Z M 2.453125 -4.78125 L 3.609375 -4.78125 C 3.953125 -4.78125 4.210938 -4.863281 4.390625 -5.03125 C 4.566406 -5.195312 4.65625 -5.472656 4.65625 -5.859375 C 4.65625 -6.242188 4.566406 -6.519531 4.390625 -6.6875 C 4.210938 -6.851562 3.953125 -6.9375 3.609375 -6.9375 L 2.453125 -6.9375 Z M 2.453125 -4.78125 "/></g></g></g><g fill="#0e3f57" fill-opacity="1"><g transform="translate(77.646848, 97.825696)"><g><path d="M 0.046875 -7.78125 C 0.046875 -7.988281 0.171875 -8.164062 0.421875 -8.3125 C 0.679688 -8.457031 0.945312 -8.53125 1.21875 -8.53125 C 1.550781 -8.53125 1.75 -8.414062 1.8125 -8.1875 L 3.4375 -2.203125 L 5.0625 -8.1875 C 5.125 -8.414062 5.320312 -8.53125 5.65625 -8.53125 C 5.925781 -8.53125 6.1875 -8.457031 6.4375 -8.3125 C 6.695312 -8.164062 6.828125 -7.988281 6.828125 -7.78125 C 6.828125 -7.757812 6.816406 -7.71875 6.796875 -7.65625 L 4.640625 -0.53125 C 4.578125 -0.34375 4.429688 -0.195312 4.203125 -0.09375 C 3.984375 0.0078125 3.726562 0.0625 3.4375 0.0625 C 3.15625 0.0625 2.898438 0.0078125 2.671875 -0.09375 C 2.453125 -0.195312 2.3125 -0.34375 2.25 -0.53125 L 0.0625 -7.65625 C 0.0507812 -7.71875 0.046875 -7.757812 0.046875 -7.78125 Z M 0.046875 -7.78125 "/></g></g></g><g fill="#0e3f57" fill-opacity="1"><g transform="translate(84.522541, 97.825696)"><g><path d="M 0.625 -0.5625 L 0.625 -7.984375 C 0.625 -8.160156 0.710938 -8.296875 0.890625 -8.390625 C 1.078125 -8.484375 1.296875 -8.53125 1.546875 -8.53125 C 1.796875 -8.53125 2.007812 -8.484375 2.1875 -8.390625 C 2.363281 -8.296875 2.453125 -8.160156 2.453125 -7.984375 L 2.453125 -0.5625 C 2.453125 -0.382812 2.363281 -0.242188 2.1875 -0.140625 C 2.007812 -0.046875 1.796875 0 1.546875 0 C 1.296875 0 1.078125 -0.046875 0.890625 -0.140625 C 0.710938 -0.242188 0.625 -0.382812 0.625 -0.5625 Z M 0.625 -0.5625 "/></g></g></g><g fill="#0e3f57" fill-opacity="1"><g transform="translate(87.604344, 97.825696)"><g><path d="M 0.625 -0.5625 L 0.625 -7.96875 C 0.625 -8.144531 0.703125 -8.28125 0.859375 -8.375 C 1.015625 -8.476562 1.203125 -8.53125 1.421875 -8.53125 L 5.578125 -8.53125 C 5.753906 -8.53125 5.890625 -8.453125 5.984375 -8.296875 C 6.078125 -8.140625 6.125 -7.957031 6.125 -7.75 C 6.125 -7.519531 6.070312 -7.328125 5.96875 -7.171875 C 5.875 -7.015625 5.742188 -6.9375 5.578125 -6.9375 L 2.453125 -6.9375 L 2.453125 -4.96875 L 4.203125 -4.96875 C 4.367188 -4.96875 4.5 -4.894531 4.59375 -4.75 C 4.695312 -4.613281 4.75 -4.453125 4.75 -4.265625 C 4.75 -4.078125 4.703125 -3.914062 4.609375 -3.78125 C 4.515625 -3.644531 4.378906 -3.578125 4.203125 -3.578125 L 2.453125 -3.578125 L 2.453125 -1.59375 L 5.578125 -1.59375 C 5.742188 -1.59375 5.875 -1.515625 5.96875 -1.359375 C 6.070312 -1.203125 6.125 -1.007812 6.125 -0.78125 C 6.125 -0.570312 6.078125 -0.390625 5.984375 -0.234375 C 5.890625 -0.078125 5.753906 0 5.578125 0 L 1.421875 0 C 1.203125 0 1.015625 -0.046875 0.859375 -0.140625 C 0.703125 -0.242188 0.625 -0.382812 0.625 -0.5625 Z M 0.625 -0.5625 "/></g></g></g><g fill="#0e3f57" fill-opacity="1"><g transform="translate(93.896365, 97.825696)"><g><path d="M 0.03125 -7.8125 C 0.03125 -8 0.15625 -8.164062 0.40625 -8.3125 C 0.664062 -8.457031 0.9375 -8.53125 1.21875 -8.53125 C 1.539062 -8.53125 1.734375 -8.414062 1.796875 -8.1875 L 3.578125 -2.203125 L 4.5 -6.15625 C 4.53125 -6.300781 4.628906 -6.414062 4.796875 -6.5 C 4.960938 -6.582031 5.148438 -6.625 5.359375 -6.625 C 5.578125 -6.625 5.769531 -6.582031 5.9375 -6.5 C 6.113281 -6.414062 6.21875 -6.300781 6.25 -6.15625 L 7.171875 -2.203125 L 8.9375 -8.1875 C 9 -8.414062 9.195312 -8.53125 9.53125 -8.53125 C 9.800781 -8.53125 10.0625 -8.457031 10.3125 -8.3125 C 10.570312 -8.164062 10.703125 -8 10.703125 -7.8125 C 10.703125 -7.757812 10.691406 -7.707031 10.671875 -7.65625 L 8.359375 -0.53125 C 8.285156 -0.34375 8.140625 -0.195312 7.921875 -0.09375 C 7.703125 0.0078125 7.445312 0.0625 7.15625 0.0625 C 6.863281 0.0625 6.601562 0.0078125 6.375 -0.09375 C 6.15625 -0.195312 6.019531 -0.34375 5.96875 -0.53125 L 5.375 -3.296875 L 4.765625 -0.53125 C 4.710938 -0.34375 4.570312 -0.195312 4.34375 -0.09375 C 4.125 0.0078125 3.867188 0.0625 3.578125 0.0625 C 3.296875 0.0625 3.039062 0.0078125 2.8125 -0.09375 C 2.582031 -0.195312 2.4375 -0.34375 2.375 -0.53125 L 0.0625 -7.65625 C 0.0390625 -7.707031 0.03125 -7.757812 0.03125 -7.8125 Z M 0.03125 -7.8125 "/></g></g></g><g fill="#0e3f57" fill-opacity="1"><g transform="translate(54.561908, 104.657961)"><g><path d="M 4.4375 -3.554688 L 3.527344 -0.632812 L 2.660156 -3.554688 L 2.128906 -3.554688 L 1.273438 -0.640625 L 0.367188 -3.554688 L -0.0351562 -3.554688 L 1.078125 0 L 1.480469 0 L 2.394531 -3.152344 L 3.324219 0 L 3.722656 0 L 4.832031 -3.554688 Z M 4.4375 -3.554688 "/></g></g></g><g fill="#0e3f57" fill-opacity="1"><g transform="translate(59.356741, 104.657961)"><g><path d="M 0.664062 -2.816406 C 0.800781 -2.816406 0.917969 -2.929688 0.917969 -3.0625 C 0.917969 -3.210938 0.800781 -3.320312 0.664062 -3.320312 C 0.523438 -3.320312 0.402344 -3.210938 0.402344 -3.0625 C 0.402344 -2.929688 0.523438 -2.816406 0.664062 -2.816406 Z M 0.480469 0 L 0.847656 0 L 0.847656 -2.371094 L 0.480469 -2.371094 Z M 0.480469 0 "/></g></g></g><g fill="#0e3f57" fill-opacity="1"><g transform="translate(60.678429, 104.657961)"><g><path d="M 1.375 -2.417969 C 1.15625 -2.417969 0.953125 -2.328125 0.800781 -2.179688 L 0.800781 -2.371094 L 0.433594 -2.371094 L 0.433594 0 L 0.800781 0 L 0.800781 -1.511719 C 0.800781 -1.8125 1.042969 -2.050781 1.34375 -2.050781 C 1.648438 -2.050781 1.882812 -1.8125 1.882812 -1.511719 L 1.882812 0 L 2.253906 0 L 2.253906 -1.511719 C 2.253906 -2.015625 1.832031 -2.417969 1.375 -2.417969 Z M 1.375 -2.417969 "/></g></g></g><g fill="#0e3f57" fill-opacity="1"><g transform="translate(63.333664, 104.657961)"><g><path d="M 2.363281 -4.363281 L 2.363281 -2.0625 C 2.140625 -2.28125 1.835938 -2.417969 1.5 -2.417969 C 0.816406 -2.417969 0.265625 -1.867188 0.265625 -1.183594 C 0.265625 -0.503906 0.816406 0.046875 1.5 0.046875 C 1.835938 0.046875 2.140625 -0.0898438 2.363281 -0.308594 L 2.363281 0 L 2.730469 0 L 2.730469 -4.363281 Z M 1.5 -0.320312 C 1.019531 -0.320312 0.632812 -0.707031 0.632812 -1.183594 C 0.632812 -1.664062 1.019531 -2.050781 1.5 -2.050781 C 1.972656 -2.050781 2.363281 -1.664062 2.363281 -1.183594 C 2.363281 -0.707031 1.972656 -0.320312 1.5 -0.320312 Z M 1.5 -0.320312 "/></g></g></g><g fill="#0e3f57" fill-opacity="1"><g transform="translate(66.498609, 104.657961)"><g><path d="M 1.5 0.046875 C 2.179688 0.046875 2.730469 -0.503906 2.730469 -1.183594 C 2.730469 -1.867188 2.179688 -2.417969 1.5 -2.417969 C 0.816406 -2.417969 0.265625 -1.867188 0.265625 -1.183594 C 0.265625 -0.503906 0.816406 0.046875 1.5 0.046875 Z M 1.5 -0.320312 C 1.019531 -0.320312 0.632812 -0.707031 0.632812 -1.183594 C 0.632812 -1.664062 1.019531 -2.050781 1.5 -2.050781 C 1.972656 -2.050781 2.363281 -1.664062 2.363281 -1.183594 C 2.363281 -0.707031 1.972656 -0.320312 1.5 -0.320312 Z M 1.5 -0.320312 "/></g></g></g><g fill="#0e3f57" fill-opacity="1"><g transform="translate(69.497604, 104.657961)"><g><path d="M 3.355469 -2.371094 L 2.726562 -0.425781 L 2.082031 -2.371094 L 1.730469 -2.371094 L 1.085938 -0.4375 L 0.46875 -2.371094 L 0.0546875 -2.371094 L 0.871094 0 L 1.273438 0 L 1.910156 -1.859375 L 2.535156 0 L 2.941406 0 L 3.75 -2.371094 Z M 3.355469 -2.371094 "/></g></g></g><g fill="#0e3f57" fill-opacity="1"><g transform="translate(73.30265, 104.657961)"><g/></g></g><g fill="#0e3f57" fill-opacity="1"><g transform="translate(74.731022, 104.657961)"><g><path d="M 2.117188 0.046875 C 2.796875 0.046875 3.390625 -0.324219 3.703125 -0.878906 L 3.378906 -1.0625 C 3.136719 -0.621094 2.660156 -0.332031 2.117188 -0.332031 C 1.316406 -0.332031 0.667969 -0.972656 0.667969 -1.777344 C 0.667969 -2.585938 1.316406 -3.222656 2.117188 -3.222656 C 2.660156 -3.222656 3.136719 -2.933594 3.378906 -2.496094 L 3.703125 -2.679688 C 3.390625 -3.230469 2.796875 -3.601562 2.117188 -3.601562 C 1.109375 -3.601562 0.289062 -2.785156 0.289062 -1.777344 C 0.289062 -0.769531 1.109375 0.046875 2.117188 0.046875 Z M 2.117188 0.046875 "/></g></g></g><g fill="#0e3f57" fill-opacity="1"><g transform="translate(78.6309, 104.657961)"><g><path d="M 0.433594 0 L 0.800781 0 L 0.800781 -4.363281 L 0.433594 -4.363281 Z M 0.433594 0 "/></g></g></g><g fill="#0e3f57" fill-opacity="1"><g transform="translate(79.863689, 104.657961)"><g><path d="M 2.730469 -1.210938 C 2.714844 -1.890625 2.175781 -2.417969 1.5 -2.417969 C 0.816406 -2.417969 0.265625 -1.867188 0.265625 -1.183594 C 0.265625 -0.503906 0.816406 0.046875 1.5 0.046875 C 2.0625 0.046875 2.53125 -0.324219 2.683594 -0.835938 L 2.292969 -0.835938 C 2.164062 -0.527344 1.855469 -0.320312 1.5 -0.320312 C 1.03125 -0.320312 0.65625 -0.675781 0.632812 -1.132812 L 2.726562 -1.132812 Z M 1.5 -2.050781 C 1.878906 -2.050781 2.199219 -1.808594 2.3125 -1.464844 L 0.679688 -1.464844 C 0.800781 -1.808594 1.121094 -2.050781 1.5 -2.050781 Z M 1.5 -2.050781 "/></g></g></g><g fill="#0e3f57" fill-opacity="1"><g transform="translate(82.838977, 104.657961)"><g><path d="M 2.976562 -0.308594 C 2.84375 -0.308594 2.730469 -0.398438 2.730469 -0.617188 L 2.730469 -2.371094 L 2.363281 -2.371094 L 2.363281 -2.0625 C 2.144531 -2.28125 1.835938 -2.417969 1.5 -2.417969 C 0.816406 -2.417969 0.265625 -1.867188 0.265625 -1.183594 C 0.265625 -0.503906 0.816406 0.046875 1.5 0.046875 C 1.855469 0.046875 2.175781 -0.117188 2.398438 -0.363281 C 2.476562 -0.117188 2.667969 0.046875 2.945312 0.046875 C 3.011719 0.046875 3.074219 0.03125 3.125 0 L 3.125 -0.308594 Z M 1.5 -0.320312 C 1.019531 -0.320312 0.632812 -0.707031 0.632812 -1.183594 C 0.632812 -1.664062 1.019531 -2.050781 1.5 -2.050781 C 1.972656 -2.050781 2.363281 -1.664062 2.363281 -1.183594 C 2.363281 -0.707031 1.972656 -0.320312 1.5 -0.320312 Z M 1.5 -0.320312 "/></g></g></g><g fill="#0e3f57" fill-opacity="1"><g transform="translate(86.033555, 104.657961)"><g><path d="M 1.375 -2.417969 C 1.15625 -2.417969 0.953125 -2.328125 0.800781 -2.179688 L 0.800781 -2.371094 L 0.433594 -2.371094 L 0.433594 0 L 0.800781 0 L 0.800781 -1.511719 C 0.800781 -1.8125 1.042969 -2.050781 1.34375 -2.050781 C 1.648438 -2.050781 1.882812 -1.8125 1.882812 -1.511719 L 1.882812 0 L 2.253906 0 L 2.253906 -1.511719 C 2.253906 -2.015625 1.832031 -2.417969 1.375 -2.417969 Z M 1.375 -2.417969 "/></g></g></g><g fill="#0e3f57" fill-opacity="1"><g transform="translate(88.68879, 104.657961)"><g><path d="M 2.730469 -1.210938 C 2.714844 -1.890625 2.175781 -2.417969 1.5 -2.417969 C 0.816406 -2.417969 0.265625 -1.867188 0.265625 -1.183594 C 0.265625 -0.503906 0.816406 0.046875 1.5 0.046875 C 2.0625 0.046875 2.53125 -0.324219 2.683594 -0.835938 L 2.292969 -0.835938 C 2.164062 -0.527344 1.855469 -0.320312 1.5 -0.320312 C 1.03125 -0.320312 0.65625 -0.675781 0.632812 -1.132812 L 2.726562 -1.132812 Z M 1.5 -2.050781 C 1.878906 -2.050781 2.199219 -1.808594 2.3125 -1.464844 L 0.679688 -1.464844 C 0.800781 -1.808594 1.121094 -2.050781 1.5 -2.050781 Z M 1.5 -2.050781 "/></g></g></g><g fill="#0e3f57" fill-opacity="1"><g transform="translate(91.664079, 104.657961)"><g><path d="M 1.589844 -2.417969 C 1.25 -2.417969 0.976562 -2.269531 0.800781 -2.03125 L 0.800781 -2.371094 L 0.433594 -2.371094 L 0.433594 0 L 0.800781 0 L 0.800781 -1.285156 C 0.800781 -1.71875 1.15625 -2.050781 1.589844 -2.050781 C 1.660156 -2.050781 1.71875 -2.042969 1.773438 -2.027344 L 1.773438 -2.398438 C 1.71875 -2.414062 1.660156 -2.417969 1.589844 -2.417969 Z M 1.589844 -2.417969 "/></g></g></g><g fill="#0e3f57" fill-opacity="1"><g transform="translate(93.465844, 104.657961)"><g><path d="M 1.019531 0.046875 C 1.433594 0.046875 1.777344 -0.230469 1.777344 -0.640625 C 1.777344 -1.066406 1.421875 -1.234375 1.113281 -1.355469 C 0.824219 -1.480469 0.675781 -1.546875 0.675781 -1.753906 C 0.675781 -1.957031 0.8125 -2.050781 1.007812 -2.050781 C 1.160156 -2.050781 1.296875 -1.984375 1.363281 -1.859375 L 1.683594 -2.027344 C 1.59375 -2.242188 1.292969 -2.417969 0.988281 -2.417969 C 0.640625 -2.417969 0.300781 -2.175781 0.300781 -1.742188 C 0.300781 -1.367188 0.550781 -1.179688 0.972656 -1.019531 C 1.257812 -0.90625 1.410156 -0.828125 1.410156 -0.640625 C 1.410156 -0.433594 1.234375 -0.3125 1.019531 -0.3125 C 0.800781 -0.3125 0.585938 -0.4375 0.550781 -0.609375 L 0.195312 -0.46875 C 0.285156 -0.183594 0.640625 0.046875 1.019531 0.046875 Z M 1.019531 0.046875 "/></g></g></g></svg>