<svg xmlns="http://www.w3.org/2000/svg" xmlns:xlink="http://www.w3.org/1999/xlink" width="100" zoomAndPan="magnify" viewBox="0 0 75 74.999997" height="100" preserveAspectRatio="xMidYMid meet" version="1.0"><defs><g/><clipPath id="id1"><path d="M 22.5 21.921875 L 52.5 21.921875 L 52.5 39 L 22.5 39 Z M 22.5 21.921875 " clip-rule="nonzero"/></clipPath><clipPath id="id2"><path d="M 22.5 28 L 52.5 28 L 52.5 41 L 22.5 41 Z M 22.5 28 " clip-rule="nonzero"/></clipPath><clipPath id="id3"><path d="M 22.5 36 L 52.5 36 L 52.5 41 L 22.5 41 Z M 22.5 36 " clip-rule="nonzero"/></clipPath></defs><g clip-path="url(#id1)"><path fill="#009ce6" d="M 37.597656 21.964844 L 36.605469 22.945312 L 36.605469 22.949219 L 35.363281 24.175781 L 34.894531 24.640625 L 35.890625 25.621094 L 36.355469 25.160156 L 37.597656 23.929688 L 48.382812 34.601562 L 49.375 33.617188 L 38.59375 22.949219 Z M 33.773438 24.664062 L 25.316406 33.035156 L 25.589844 33.402344 L 34.144531 24.9375 Z M 34.355469 25.160156 L 25.816406 33.609375 C 25.8125 33.613281 25.8125 33.621094 25.816406 33.625 L 26.117188 33.921875 C 26.734375 33.621094 27.4375 33.367188 28.242188 33.1875 C 28.734375 32.703125 28.835938 32.601562 29.546875 31.898438 C 30.632812 30.824219 32.597656 32.765625 32.597656 32.765625 C 32.597656 32.769531 32.601562 32.769531 32.605469 32.765625 L 32.777344 32.597656 L 33.285156 33.101562 C 34.015625 33.207031 34.714844 33.351562 35.386719 33.515625 L 34.167969 32.359375 L 33.878906 32.644531 L 33.332031 32.050781 L 33.503906 31.878906 C 33.507812 31.875 33.507812 31.871094 33.503906 31.871094 C 33.503906 31.871094 31.539062 29.925781 32.625 28.851562 C 34.113281 27.378906 35.355469 26.148438 35.355469 26.148438 C 35.359375 26.144531 35.359375 26.140625 35.355469 26.136719 L 34.371094 25.160156 C 34.367188 25.15625 34.359375 25.15625 34.355469 25.160156 Z M 30.804688 33.664062 C 24.332031 33.6875 22.992188 38.332031 22.992188 38.332031 C 26.492188 34.503906 30.089844 33.847656 39.066406 37.144531 C 48.042969 40.445312 52.511719 34.21875 52.511719 34.21875 C 43.929688 39.921875 39.824219 34.398438 32.167969 33.722656 C 31.691406 33.679688 31.238281 33.660156 30.804688 33.664062 Z M 30.804688 33.664062 " fill-opacity="1" fill-rule="nonzero"/></g><g clip-path="url(#id2)"><path fill="#009ce6" d="M 37.441406 28.046875 L 36.222656 29.25 L 36.222656 29.785156 L 37.441406 29.785156 Z M 37.757812 28.046875 L 37.757812 29.785156 L 38.976562 29.785156 L 38.976562 29.25 Z M 36.222656 31.304688 L 37.441406 31.304688 L 37.441406 30.097656 L 36.222656 30.097656 Z M 37.757812 31.304688 L 38.976562 31.304688 L 38.976562 30.097656 L 37.757812 30.097656 Z M 30.316406 36.089844 C 23.839844 36.113281 22.5 40.757812 22.5 40.757812 C 26 36.929688 29.601562 36.273438 38.574219 39.570312 C 47.550781 42.871094 52.023438 36.644531 52.023438 36.644531 C 43.441406 42.351562 39.332031 36.824219 31.679688 36.148438 C 31.199219 36.105469 30.746094 36.089844 30.316406 36.089844 Z M 30.316406 36.089844 " fill-opacity="1" fill-rule="nonzero"/></g><g clip-path="url(#id3)"><path fill="#009ce6" d="M 30.316406 36.089844 C 23.839844 36.113281 22.5 40.757812 22.5 40.757812 C 25.898438 37.042969 29.386719 36.3125 37.792969 39.289062 C 37.851562 39.09375 37.894531 38.9375 37.882812 39 C 37.890625 38.957031 37.902344 38.917969 37.914062 38.882812 C 38.003906 38.632812 38.292969 38.382812 38.550781 38.320312 C 38.804688 38.261719 39 38.304688 39.179688 38.355469 C 39.386719 38.414062 39.605469 38.511719 39.785156 38.703125 C 39.832031 38.753906 39.859375 38.820312 39.898438 38.878906 C 39.957031 38.722656 40.082031 38.550781 40.25 38.4375 C 37.621094 37.632812 34.980469 36.441406 31.679688 36.148438 C 31.199219 36.105469 30.746094 36.089844 30.316406 36.089844 Z M 52.023438 36.644531 C 47.902344 39.382812 44.8125 39.53125 41.867188 38.871094 C 41.949219 39.011719 42.003906 39.171875 42.019531 39.324219 C 42.039062 39.476562 42.027344 39.640625 41.980469 39.777344 C 41.941406 39.898438 41.871094 40.117188 41.777344 40.398438 C 48.613281 41.390625 52.023438 36.644531 52.023438 36.644531 Z M 52.023438 36.644531 " fill-opacity="1" fill-rule="nonzero"/></g><g fill="#0e3f57" fill-opacity="1"><g transform="translate(22.678965, 48.912843)"><g><path d="M 0.265625 -1.34375 L 0.265625 -2.890625 C 0.265625 -3.367188 0.394531 -3.71875 0.65625 -3.9375 C 0.914062 -4.15625 1.253906 -4.265625 1.671875 -4.265625 C 2.097656 -4.265625 2.445312 -4.160156 2.71875 -3.953125 C 3 -3.753906 3.140625 -3.472656 3.140625 -3.109375 C 3.140625 -2.941406 3.101562 -2.828125 3.03125 -2.765625 C 2.957031 -2.703125 2.84375 -2.671875 2.6875 -2.671875 C 2.394531 -2.671875 2.238281 -2.765625 2.21875 -2.953125 C 2.207031 -3.304688 2.035156 -3.484375 1.703125 -3.484375 C 1.359375 -3.484375 1.1875 -3.285156 1.1875 -2.890625 L 1.1875 -1.34375 C 1.1875 -0.957031 1.363281 -0.765625 1.71875 -0.765625 C 1.820312 -0.765625 1.910156 -0.78125 1.984375 -0.8125 C 2.054688 -0.84375 2.109375 -0.894531 2.140625 -0.96875 C 2.171875 -1.039062 2.191406 -1.097656 2.203125 -1.140625 C 2.210938 -1.191406 2.21875 -1.257812 2.21875 -1.34375 C 2.238281 -1.53125 2.390625 -1.625 2.671875 -1.625 C 2.835938 -1.625 2.957031 -1.59375 3.03125 -1.53125 C 3.101562 -1.46875 3.140625 -1.351562 3.140625 -1.1875 C 3.140625 -0.8125 3 -0.515625 2.71875 -0.296875 C 2.445312 -0.078125 2.097656 0.03125 1.671875 0.03125 C 1.253906 0.03125 0.914062 -0.078125 0.65625 -0.296875 C 0.394531 -0.515625 0.265625 -0.863281 0.265625 -1.34375 Z M 0.265625 -1.34375 "/></g></g></g><g fill="#0e3f57" fill-opacity="1"><g transform="translate(25.959221, 48.912843)"><g><path d="M 0.3125 -0.28125 L 0.3125 -4 C 0.3125 -4.082031 0.351562 -4.144531 0.4375 -4.1875 C 0.53125 -4.238281 0.640625 -4.265625 0.765625 -4.265625 C 0.890625 -4.265625 1 -4.238281 1.09375 -4.1875 C 1.1875 -4.144531 1.234375 -4.082031 1.234375 -4 L 1.234375 -0.796875 L 2.5625 -0.796875 C 2.644531 -0.796875 2.707031 -0.753906 2.75 -0.671875 C 2.800781 -0.597656 2.828125 -0.503906 2.828125 -0.390625 C 2.828125 -0.285156 2.800781 -0.191406 2.75 -0.109375 C 2.707031 -0.0351562 2.644531 0 2.5625 0 L 0.71875 0 C 0.601562 0 0.503906 -0.0195312 0.421875 -0.0625 C 0.347656 -0.113281 0.3125 -0.1875 0.3125 -0.28125 Z M 0.3125 -0.28125 "/></g></g></g><g fill="#0e3f57" fill-opacity="1"><g transform="translate(28.830904, 48.912843)"><g><path d="M 0.3125 -0.28125 L 0.3125 -3.984375 C 0.3125 -4.078125 0.347656 -4.144531 0.421875 -4.1875 C 0.503906 -4.238281 0.601562 -4.265625 0.71875 -4.265625 L 2.796875 -4.265625 C 2.878906 -4.265625 2.941406 -4.222656 2.984375 -4.140625 C 3.035156 -4.066406 3.0625 -3.976562 3.0625 -3.875 C 3.0625 -3.757812 3.035156 -3.664062 2.984375 -3.59375 C 2.941406 -3.519531 2.878906 -3.484375 2.796875 -3.484375 L 1.234375 -3.484375 L 1.234375 -2.484375 L 2.109375 -2.484375 C 2.191406 -2.484375 2.253906 -2.445312 2.296875 -2.375 C 2.347656 -2.3125 2.375 -2.234375 2.375 -2.140625 C 2.375 -2.046875 2.347656 -1.960938 2.296875 -1.890625 C 2.253906 -1.816406 2.191406 -1.78125 2.109375 -1.78125 L 1.234375 -1.78125 L 1.234375 -0.796875 L 2.796875 -0.796875 C 2.878906 -0.796875 2.941406 -0.753906 2.984375 -0.671875 C 3.035156 -0.597656 3.0625 -0.503906 3.0625 -0.390625 C 3.0625 -0.285156 3.035156 -0.191406 2.984375 -0.109375 C 2.941406 -0.0351562 2.878906 0 2.796875 0 L 0.71875 0 C 0.601562 0 0.503906 -0.0195312 0.421875 -0.0625 C 0.347656 -0.113281 0.3125 -0.1875 0.3125 -0.28125 Z M 0.3125 -0.28125 "/></g></g></g><g fill="#0e3f57" fill-opacity="1"><g transform="translate(31.976915, 48.912843)"><g><path d="M 0.015625 -0.375 C 0.015625 -0.382812 0.0195312 -0.40625 0.03125 -0.4375 L 1.125 -4 C 1.15625 -4.101562 1.222656 -4.179688 1.328125 -4.234375 C 1.441406 -4.285156 1.570312 -4.3125 1.71875 -4.3125 C 1.863281 -4.3125 1.988281 -4.285156 2.09375 -4.234375 C 2.207031 -4.179688 2.28125 -4.101562 2.3125 -4 L 3.40625 -0.4375 C 3.414062 -0.40625 3.421875 -0.382812 3.421875 -0.375 C 3.421875 -0.269531 3.351562 -0.179688 3.21875 -0.109375 C 3.09375 -0.0351562 2.960938 0 2.828125 0 C 2.660156 0 2.5625 -0.0546875 2.53125 -0.171875 L 2.34375 -0.90625 L 1.109375 -0.90625 L 0.90625 -0.171875 C 0.875 -0.0546875 0.773438 0 0.609375 0 C 0.472656 0 0.335938 -0.0351562 0.203125 -0.109375 C 0.078125 -0.179688 0.015625 -0.269531 0.015625 -0.375 Z M 1.296875 -1.59375 L 2.140625 -1.59375 L 1.71875 -3.171875 Z M 1.296875 -1.59375 "/></g></g></g><g fill="#0e3f57" fill-opacity="1"><g transform="translate(35.414761, 48.912843)"><g><path d="M 0.3125 -0.28125 L 0.3125 -4 C 0.3125 -4.070312 0.335938 -4.132812 0.390625 -4.1875 C 0.441406 -4.238281 0.507812 -4.265625 0.59375 -4.265625 L 1.8125 -4.265625 C 2.769531 -4.265625 3.25 -3.847656 3.25 -3.015625 C 3.25 -2.410156 3.007812 -2.015625 2.53125 -1.828125 L 3.25 -0.546875 C 3.269531 -0.515625 3.28125 -0.476562 3.28125 -0.4375 C 3.28125 -0.320312 3.21875 -0.210938 3.09375 -0.109375 C 2.96875 -0.015625 2.835938 0.03125 2.703125 0.03125 C 2.566406 0.03125 2.46875 -0.0234375 2.40625 -0.140625 L 1.609375 -1.6875 L 1.234375 -1.6875 L 1.234375 -0.28125 C 1.234375 -0.1875 1.1875 -0.113281 1.09375 -0.0625 C 1 -0.0195312 0.890625 0 0.765625 0 C 0.640625 0 0.53125 -0.0195312 0.4375 -0.0625 C 0.351562 -0.113281 0.3125 -0.1875 0.3125 -0.28125 Z M 1.234375 -2.390625 L 1.8125 -2.390625 C 1.976562 -2.390625 2.101562 -2.429688 2.1875 -2.515625 C 2.28125 -2.597656 2.328125 -2.734375 2.328125 -2.921875 C 2.328125 -3.117188 2.28125 -3.257812 2.1875 -3.34375 C 2.101562 -3.4375 1.976562 -3.484375 1.8125 -3.484375 L 1.234375 -3.484375 Z M 1.234375 -2.390625 "/></g></g></g><g fill="#0e3f57" fill-opacity="1"><g transform="translate(38.823424, 48.912843)"><g><path d="M 0.015625 -3.890625 C 0.015625 -3.992188 0.078125 -4.082031 0.203125 -4.15625 C 0.335938 -4.226562 0.472656 -4.265625 0.609375 -4.265625 C 0.773438 -4.265625 0.875 -4.210938 0.90625 -4.109375 L 1.71875 -1.109375 L 2.53125 -4.109375 C 2.5625 -4.210938 2.660156 -4.265625 2.828125 -4.265625 C 2.960938 -4.265625 3.09375 -4.226562 3.21875 -4.15625 C 3.351562 -4.082031 3.421875 -3.992188 3.421875 -3.890625 C 3.421875 -3.878906 3.414062 -3.859375 3.40625 -3.828125 L 2.3125 -0.265625 C 2.28125 -0.171875 2.207031 -0.0976562 2.09375 -0.046875 C 1.988281 0.00390625 1.863281 0.03125 1.71875 0.03125 C 1.570312 0.03125 1.441406 0.00390625 1.328125 -0.046875 C 1.222656 -0.0976562 1.15625 -0.171875 1.125 -0.265625 L 0.03125 -3.828125 C 0.0195312 -3.859375 0.015625 -3.878906 0.015625 -3.890625 Z M 0.015625 -3.890625 "/></g></g></g><g fill="#0e3f57" fill-opacity="1"><g transform="translate(42.26127, 48.912843)"><g><path d="M 0.3125 -0.28125 L 0.3125 -4 C 0.3125 -4.082031 0.351562 -4.144531 0.4375 -4.1875 C 0.53125 -4.238281 0.640625 -4.265625 0.765625 -4.265625 C 0.890625 -4.265625 1 -4.238281 1.09375 -4.1875 C 1.1875 -4.144531 1.234375 -4.082031 1.234375 -4 L 1.234375 -0.28125 C 1.234375 -0.1875 1.1875 -0.113281 1.09375 -0.0625 C 1 -0.0195312 0.890625 0 0.765625 0 C 0.640625 0 0.53125 -0.0195312 0.4375 -0.0625 C 0.351562 -0.113281 0.3125 -0.1875 0.3125 -0.28125 Z M 0.3125 -0.28125 "/></g></g></g><g fill="#0e3f57" fill-opacity="1"><g transform="translate(43.802172, 48.912843)"><g><path d="M 0.3125 -0.28125 L 0.3125 -3.984375 C 0.3125 -4.078125 0.347656 -4.144531 0.421875 -4.1875 C 0.503906 -4.238281 0.601562 -4.265625 0.71875 -4.265625 L 2.796875 -4.265625 C 2.878906 -4.265625 2.941406 -4.222656 2.984375 -4.140625 C 3.035156 -4.066406 3.0625 -3.976562 3.0625 -3.875 C 3.0625 -3.757812 3.035156 -3.664062 2.984375 -3.59375 C 2.941406 -3.519531 2.878906 -3.484375 2.796875 -3.484375 L 1.234375 -3.484375 L 1.234375 -2.484375 L 2.109375 -2.484375 C 2.191406 -2.484375 2.253906 -2.445312 2.296875 -2.375 C 2.347656 -2.3125 2.375 -2.234375 2.375 -2.140625 C 2.375 -2.046875 2.347656 -1.960938 2.296875 -1.890625 C 2.253906 -1.816406 2.191406 -1.78125 2.109375 -1.78125 L 1.234375 -1.78125 L 1.234375 -0.796875 L 2.796875 -0.796875 C 2.878906 -0.796875 2.941406 -0.753906 2.984375 -0.671875 C 3.035156 -0.597656 3.0625 -0.503906 3.0625 -0.390625 C 3.0625 -0.285156 3.035156 -0.191406 2.984375 -0.109375 C 2.941406 -0.0351562 2.878906 0 2.796875 0 L 0.71875 0 C 0.601562 0 0.503906 -0.0195312 0.421875 -0.0625 C 0.347656 -0.113281 0.3125 -0.1875 0.3125 -0.28125 Z M 0.3125 -0.28125 "/></g></g></g><g fill="#0e3f57" fill-opacity="1"><g transform="translate(46.948182, 48.912843)"><g><path d="M 0.015625 -3.90625 C 0.015625 -4 0.078125 -4.082031 0.203125 -4.15625 C 0.328125 -4.226562 0.460938 -4.265625 0.609375 -4.265625 C 0.773438 -4.265625 0.875 -4.210938 0.90625 -4.109375 L 1.78125 -1.109375 L 2.25 -3.078125 C 2.257812 -3.148438 2.304688 -3.207031 2.390625 -3.25 C 2.484375 -3.289062 2.582031 -3.3125 2.6875 -3.3125 C 2.789062 -3.3125 2.882812 -3.289062 2.96875 -3.25 C 3.0625 -3.207031 3.113281 -3.148438 3.125 -3.078125 L 3.59375 -1.109375 L 4.46875 -4.109375 C 4.5 -4.210938 4.597656 -4.265625 4.765625 -4.265625 C 4.910156 -4.265625 5.046875 -4.226562 5.171875 -4.15625 C 5.296875 -4.082031 5.359375 -4 5.359375 -3.90625 C 5.359375 -3.882812 5.351562 -3.859375 5.34375 -3.828125 L 4.1875 -0.265625 C 4.144531 -0.171875 4.066406 -0.0976562 3.953125 -0.046875 C 3.847656 0.00390625 3.722656 0.03125 3.578125 0.03125 C 3.429688 0.03125 3.300781 0.00390625 3.1875 -0.046875 C 3.082031 -0.0976562 3.015625 -0.171875 2.984375 -0.265625 L 2.6875 -1.65625 L 2.390625 -0.265625 C 2.359375 -0.171875 2.285156 -0.0976562 2.171875 -0.046875 C 2.066406 0.00390625 1.941406 0.03125 1.796875 0.03125 C 1.648438 0.03125 1.519531 0.00390625 1.40625 -0.046875 C 1.289062 -0.0976562 1.21875 -0.171875 1.1875 -0.265625 L 0.03125 -3.828125 C 0.0195312 -3.859375 0.015625 -3.882812 0.015625 -3.90625 Z M 0.015625 -3.90625 "/></g></g></g><g fill="#0e3f57" fill-opacity="1"><g transform="translate(16.540247, 54.780801)"><g><path d="M 4.558594 -3.652344 L 3.621094 -0.652344 L 2.730469 -3.652344 L 2.183594 -3.652344 L 1.308594 -0.65625 L 0.378906 -3.652344 L -0.0351562 -3.652344 L 1.105469 0 L 1.519531 0 L 2.457031 -3.238281 L 3.414062 0 L 3.820312 0 L 4.957031 -3.652344 Z M 4.558594 -3.652344 "/></g></g></g><g fill="#0e3f57" fill-opacity="1"><g transform="translate(21.45827, 54.780801)"><g><path d="M 0.679688 -2.890625 C 0.820312 -2.890625 0.941406 -3.003906 0.941406 -3.144531 C 0.941406 -3.296875 0.820312 -3.40625 0.679688 -3.40625 C 0.535156 -3.40625 0.414062 -3.296875 0.414062 -3.144531 C 0.414062 -3.003906 0.535156 -2.890625 0.679688 -2.890625 Z M 0.492188 0 L 0.871094 0 L 0.871094 -2.433594 L 0.492188 -2.433594 Z M 0.492188 0 "/></g></g></g><g fill="#0e3f57" fill-opacity="1"><g transform="translate(22.81392, 54.780801)"><g><path d="M 1.410156 -2.484375 C 1.1875 -2.484375 0.980469 -2.390625 0.820312 -2.238281 L 0.820312 -2.433594 L 0.445312 -2.433594 L 0.445312 0 L 0.820312 0 L 0.820312 -1.550781 C 0.820312 -1.863281 1.070312 -2.105469 1.382812 -2.105469 C 1.691406 -2.105469 1.933594 -1.863281 1.933594 -1.550781 L 1.933594 0 L 2.3125 0 L 2.3125 -1.550781 C 2.3125 -2.070312 1.878906 -2.484375 1.410156 -2.484375 Z M 1.410156 -2.484375 "/></g></g></g><g fill="#0e3f57" fill-opacity="1"><g transform="translate(25.537374, 54.780801)"><g><path d="M 2.425781 -4.476562 L 2.425781 -2.117188 C 2.195312 -2.34375 1.886719 -2.484375 1.539062 -2.484375 C 0.839844 -2.484375 0.273438 -1.917969 0.273438 -1.21875 C 0.273438 -0.515625 0.839844 0.046875 1.539062 0.046875 C 1.886719 0.046875 2.195312 -0.0898438 2.425781 -0.316406 L 2.425781 0 L 2.804688 0 L 2.804688 -4.476562 Z M 1.539062 -0.328125 C 1.046875 -0.328125 0.652344 -0.722656 0.652344 -1.21875 C 0.652344 -1.710938 1.046875 -2.105469 1.539062 -2.105469 C 2.027344 -2.105469 2.425781 -1.710938 2.425781 -1.21875 C 2.425781 -0.722656 2.027344 -0.328125 1.539062 -0.328125 Z M 1.539062 -0.328125 "/></g></g></g><g fill="#0e3f57" fill-opacity="1"><g transform="translate(28.783633, 54.780801)"><g><path d="M 1.539062 0.046875 C 2.238281 0.046875 2.804688 -0.515625 2.804688 -1.21875 C 2.804688 -1.917969 2.238281 -2.484375 1.539062 -2.484375 C 0.839844 -2.484375 0.273438 -1.917969 0.273438 -1.21875 C 0.273438 -0.515625 0.839844 0.046875 1.539062 0.046875 Z M 1.539062 -0.328125 C 1.046875 -0.328125 0.652344 -0.722656 0.652344 -1.21875 C 0.652344 -1.710938 1.046875 -2.105469 1.539062 -2.105469 C 2.027344 -2.105469 2.425781 -1.710938 2.425781 -1.21875 C 2.425781 -0.722656 2.027344 -0.328125 1.539062 -0.328125 Z M 1.539062 -0.328125 "/></g></g></g><g fill="#0e3f57" fill-opacity="1"><g transform="translate(31.859679, 54.780801)"><g><path d="M 3.445312 -2.433594 L 2.796875 -0.4375 L 2.136719 -2.433594 L 1.777344 -2.433594 L 1.113281 -0.449219 L 0.480469 -2.433594 L 0.0546875 -2.433594 L 0.894531 0 L 1.308594 0 L 1.960938 -1.910156 L 2.605469 0 L 3.019531 0 L 3.851562 -2.433594 Z M 3.445312 -2.433594 "/></g></g></g><g fill="#0e3f57" fill-opacity="1"><g transform="translate(35.762486, 54.780801)"><g/></g></g><g fill="#0e3f57" fill-opacity="1"><g transform="translate(37.227558, 54.780801)"><g><path d="M 2.171875 0.046875 C 2.871094 0.046875 3.480469 -0.335938 3.800781 -0.902344 L 3.46875 -1.089844 C 3.21875 -0.640625 2.730469 -0.339844 2.171875 -0.339844 C 1.351562 -0.339844 0.6875 -0.996094 0.6875 -1.824219 C 0.6875 -2.652344 1.351562 -3.308594 2.171875 -3.308594 C 2.730469 -3.308594 3.21875 -3.011719 3.46875 -2.5625 L 3.800781 -2.75 C 3.480469 -3.316406 2.871094 -3.699219 2.171875 -3.699219 C 1.136719 -3.699219 0.296875 -2.859375 0.296875 -1.824219 C 0.296875 -0.789062 1.136719 0.046875 2.171875 0.046875 Z M 2.171875 0.046875 "/></g></g></g><g fill="#0e3f57" fill-opacity="1"><g transform="translate(41.227628, 54.780801)"><g><path d="M 0.445312 0 L 0.820312 0 L 0.820312 -4.476562 L 0.445312 -4.476562 Z M 0.445312 0 "/></g></g></g><g fill="#0e3f57" fill-opacity="1"><g transform="translate(42.492092, 54.780801)"><g><path d="M 2.804688 -1.242188 C 2.785156 -1.941406 2.234375 -2.484375 1.539062 -2.484375 C 0.839844 -2.484375 0.273438 -1.917969 0.273438 -1.21875 C 0.273438 -0.515625 0.839844 0.046875 1.539062 0.046875 C 2.117188 0.046875 2.597656 -0.335938 2.757812 -0.859375 L 2.355469 -0.859375 C 2.222656 -0.542969 1.90625 -0.328125 1.539062 -0.328125 C 1.058594 -0.328125 0.675781 -0.695312 0.652344 -1.164062 L 2.796875 -1.164062 Z M 1.539062 -2.105469 C 1.929688 -2.105469 2.257812 -1.855469 2.371094 -1.503906 L 0.699219 -1.503906 C 0.820312 -1.855469 1.148438 -2.105469 1.539062 -2.105469 Z M 1.539062 -2.105469 "/></g></g></g><g fill="#0e3f57" fill-opacity="1"><g transform="translate(45.543819, 54.780801)"><g><path d="M 3.054688 -0.316406 C 2.921875 -0.316406 2.804688 -0.40625 2.804688 -0.632812 L 2.804688 -2.433594 L 2.425781 -2.433594 L 2.425781 -2.117188 C 2.203125 -2.34375 1.886719 -2.484375 1.539062 -2.484375 C 0.839844 -2.484375 0.273438 -1.917969 0.273438 -1.21875 C 0.273438 -0.515625 0.839844 0.046875 1.539062 0.046875 C 1.90625 0.046875 2.234375 -0.121094 2.464844 -0.371094 C 2.542969 -0.121094 2.738281 0.046875 3.023438 0.046875 C 3.089844 0.046875 3.15625 0.03125 3.207031 0 L 3.207031 -0.316406 Z M 1.539062 -0.328125 C 1.046875 -0.328125 0.652344 -0.722656 0.652344 -1.21875 C 0.652344 -1.710938 1.046875 -2.105469 1.539062 -2.105469 C 2.027344 -2.105469 2.425781 -1.710938 2.425781 -1.21875 C 2.425781 -0.722656 2.027344 -0.328125 1.539062 -0.328125 Z M 1.539062 -0.328125 "/></g></g></g><g fill="#0e3f57" fill-opacity="1"><g transform="translate(48.820474, 54.780801)"><g><path d="M 1.410156 -2.484375 C 1.1875 -2.484375 0.980469 -2.390625 0.820312 -2.238281 L 0.820312 -2.433594 L 0.445312 -2.433594 L 0.445312 0 L 0.820312 0 L 0.820312 -1.550781 C 0.820312 -1.863281 1.070312 -2.105469 1.382812 -2.105469 C 1.691406 -2.105469 1.933594 -1.863281 1.933594 -1.550781 L 1.933594 0 L 2.3125 0 L 2.3125 -1.550781 C 2.3125 -2.070312 1.878906 -2.484375 1.410156 -2.484375 Z M 1.410156 -2.484375 "/></g></g></g><g fill="#0e3f57" fill-opacity="1"><g transform="translate(51.543927, 54.780801)"><g><path d="M 2.804688 -1.242188 C 2.785156 -1.941406 2.234375 -2.484375 1.539062 -2.484375 C 0.839844 -2.484375 0.273438 -1.917969 0.273438 -1.21875 C 0.273438 -0.515625 0.839844 0.046875 1.539062 0.046875 C 2.117188 0.046875 2.597656 -0.335938 2.757812 -0.859375 L 2.355469 -0.859375 C 2.222656 -0.542969 1.90625 -0.328125 1.539062 -0.328125 C 1.058594 -0.328125 0.675781 -0.695312 0.652344 -1.164062 L 2.796875 -1.164062 Z M 1.539062 -2.105469 C 1.929688 -2.105469 2.257812 -1.855469 2.371094 -1.503906 L 0.699219 -1.503906 C 0.820312 -1.855469 1.148438 -2.105469 1.539062 -2.105469 Z M 1.539062 -2.105469 "/></g></g></g><g fill="#0e3f57" fill-opacity="1"><g transform="translate(54.595654, 54.780801)"><g><path d="M 1.628906 -2.484375 C 1.285156 -2.484375 1.003906 -2.332031 0.820312 -2.085938 L 0.820312 -2.433594 L 0.445312 -2.433594 L 0.445312 0 L 0.820312 0 L 0.820312 -1.320312 C 0.820312 -1.765625 1.1875 -2.105469 1.628906 -2.105469 C 1.703125 -2.105469 1.765625 -2.097656 1.820312 -2.082031 L 1.820312 -2.464844 C 1.765625 -2.476562 1.703125 -2.484375 1.628906 -2.484375 Z M 1.628906 -2.484375 "/></g></g></g><g fill="#0e3f57" fill-opacity="1"><g transform="translate(56.443715, 54.780801)"><g><path d="M 1.046875 0.046875 C 1.472656 0.046875 1.824219 -0.238281 1.824219 -0.65625 C 1.824219 -1.09375 1.460938 -1.265625 1.144531 -1.394531 C 0.847656 -1.519531 0.695312 -1.589844 0.695312 -1.800781 C 0.695312 -2.007812 0.832031 -2.105469 1.035156 -2.105469 C 1.191406 -2.105469 1.332031 -2.039062 1.398438 -1.910156 L 1.726562 -2.082031 C 1.636719 -2.300781 1.328125 -2.484375 1.015625 -2.484375 C 0.65625 -2.484375 0.308594 -2.234375 0.308594 -1.789062 C 0.308594 -1.40625 0.566406 -1.210938 0.996094 -1.046875 C 1.289062 -0.929688 1.449219 -0.851562 1.449219 -0.65625 C 1.449219 -0.445312 1.265625 -0.324219 1.046875 -0.324219 C 0.820312 -0.324219 0.601562 -0.449219 0.566406 -0.625 L 0.199219 -0.480469 C 0.292969 -0.1875 0.65625 0.046875 1.046875 0.046875 Z M 1.046875 0.046875 "/></g></g></g></svg>