<svg xmlns="http://www.w3.org/2000/svg" xmlns:xlink="http://www.w3.org/1999/xlink" width="500" zoomAndPan="magnify" viewBox="0 0 375 374.999991" height="500" preserveAspectRatio="xMidYMid meet" version="1.0"><defs><g/><clipPath id="id1"><path d="M 114 109.601562 L 262.5 109.601562 L 262.5 193 L 114 193 Z M 114 109.601562 " clip-rule="nonzero"/></clipPath><clipPath id="id2"><path d="M 112.5 140 L 261 140 L 261 206 L 112.5 206 Z M 112.5 140 " clip-rule="nonzero"/></clipPath><clipPath id="id3"><path d="M 112.5 181 L 261 181 L 261 206 L 112.5 206 Z M 112.5 181 " clip-rule="nonzero"/></clipPath></defs><g clip-path="url(#id1)"><path fill="#009ce6" d="M 187.992188 109.828125 L 183.027344 114.8125 L 183.027344 114.816406 L 176.8125 121.050781 L 174.480469 123.394531 L 179.449219 128.378906 L 181.78125 126.035156 L 187.996094 119.796875 L 241.910156 173.90625 L 246.878906 168.917969 L 192.960938 114.816406 L 187.996094 109.828125 Z M 168.867188 123.53125 L 126.578125 165.964844 L 127.957031 167.832031 L 170.726562 124.914062 Z M 171.773438 126.035156 L 129.078125 168.882812 C 129.054688 168.902344 129.054688 168.9375 129.078125 168.957031 L 130.585938 170.46875 C 133.671875 168.9375 137.195312 167.644531 141.21875 166.742188 C 143.667969 164.28125 144.183594 163.765625 147.738281 160.199219 C 153.160156 154.757812 162.980469 164.609375 162.980469 164.609375 C 162.996094 164.625 163.007812 164.625 163.023438 164.609375 L 163.890625 163.746094 L 166.433594 166.296875 C 170.085938 166.835938 173.582031 167.566406 176.933594 168.414062 L 170.832031 162.546875 L 169.398438 163.988281 L 166.652344 160.972656 L 167.519531 160.101562 C 167.53125 160.089844 167.53125 160.074219 167.519531 160.058594 C 167.519531 160.058594 157.699219 150.203125 163.121094 144.761719 C 170.566406 137.289062 176.777344 131.054688 176.777344 131.054688 C 176.796875 131.035156 176.796875 131.007812 176.777344 130.984375 L 171.847656 126.035156 C 171.828125 126.015625 171.792969 126.015625 171.773438 126.035156 Z M 154.023438 169.15625 C 121.65625 169.28125 114.953125 192.835938 114.953125 192.835938 C 132.453125 173.417969 150.453125 170.082031 195.332031 186.816406 C 240.214844 203.546875 262.5625 171.980469 262.5625 171.980469 C 219.65625 200.898438 199.113281 172.878906 160.84375 169.457031 C 158.453125 169.242188 156.183594 169.144531 154.023438 169.15625 Z M 154.023438 169.15625 " fill-opacity="1" fill-rule="nonzero"/></g><g clip-path="url(#id2)"><path fill="#009ce6" d="M 187.203125 140.664062 L 181.117188 146.78125 L 181.117188 149.480469 L 187.203125 149.480469 Z M 188.796875 140.675781 L 188.796875 149.480469 L 194.882812 149.480469 L 194.882812 146.78125 Z M 181.117188 157.1875 L 187.203125 157.1875 L 187.203125 151.082031 L 181.117188 151.082031 Z M 188.796875 157.1875 L 194.882812 157.1875 L 194.882812 151.082031 L 188.796875 151.082031 Z M 151.574219 181.457031 C 119.203125 181.585938 112.5 205.136719 112.5 205.136719 C 130.003906 185.71875 148.003906 182.386719 192.878906 199.117188 C 237.761719 215.851562 260.113281 184.28125 260.113281 184.28125 C 217.203125 213.207031 196.660156 185.179688 158.394531 181.757812 C 156.003906 181.546875 153.730469 181.453125 151.574219 181.457031 Z M 151.574219 181.457031 " fill-opacity="1" fill-rule="nonzero"/></g><g clip-path="url(#id3)"><path fill="#009ce6" d="M 151.574219 181.457031 C 119.203125 181.585938 112.5 205.136719 112.5 205.136719 C 129.484375 186.296875 146.9375 182.597656 188.964844 197.6875 C 189.261719 196.6875 189.46875 195.902344 189.417969 196.207031 C 189.453125 196.003906 189.503906 195.808594 189.574219 195.617188 C 190.027344 194.359375 191.460938 193.082031 192.746094 192.773438 C 194.027344 192.46875 195 192.679688 195.890625 192.9375 C 196.941406 193.242188 198.03125 193.746094 198.929688 194.707031 C 199.167969 194.960938 199.304688 195.304688 199.488281 195.609375 C 199.78125 194.8125 200.410156 193.933594 201.242188 193.367188 C 188.113281 189.285156 174.90625 183.234375 158.394531 181.757812 C 156.003906 181.542969 153.730469 181.453125 151.574219 181.457031 Z M 260.113281 184.28125 C 239.507812 198.167969 224.058594 198.914062 209.335938 195.570312 C 209.742188 196.277344 210.011719 197.085938 210.097656 197.863281 C 210.195312 198.636719 210.132812 199.457031 209.894531 200.15625 C 209.714844 200.773438 209.355469 201.886719 208.878906 203.316406 C 243.074219 208.347656 260.113281 184.28125 260.113281 184.28125 Z M 260.113281 184.28125 " fill-opacity="1" fill-rule="nonzero"/></g><g fill="#0e3f57" fill-opacity="1"><g transform="translate(80.427469, 244.564246)"><g><path d="M 1.578125 -1.40625 L 1.578125 -19.96875 C 1.578125 -20.414062 1.800781 -20.753906 2.25 -20.984375 C 2.695312 -21.222656 3.234375 -21.34375 3.859375 -21.34375 C 4.484375 -21.34375 5.015625 -21.222656 5.453125 -20.984375 C 5.898438 -20.753906 6.125 -20.414062 6.125 -19.96875 L 6.125 -12.8125 L 11.9375 -12.8125 L 11.9375 -19.96875 C 11.9375 -20.414062 12.160156 -20.753906 12.609375 -20.984375 C 13.054688 -21.222656 13.59375 -21.34375 14.21875 -21.34375 C 14.84375 -21.34375 15.378906 -21.222656 15.828125 -20.984375 C 16.273438 -20.753906 16.5 -20.414062 16.5 -19.96875 L 16.5 -1.40625 C 16.5 -0.957031 16.273438 -0.609375 15.828125 -0.359375 C 15.378906 -0.117188 14.84375 0 14.21875 0 C 13.59375 0 13.054688 -0.117188 12.609375 -0.359375 C 12.160156 -0.609375 11.9375 -0.957031 11.9375 -1.40625 L 11.9375 -9.3125 L 6.125 -9.3125 L 6.125 -1.40625 C 6.125 -0.957031 5.898438 -0.609375 5.453125 -0.359375 C 5.015625 -0.117188 4.484375 0 3.859375 0 C 3.234375 0 2.695312 -0.117188 2.25 -0.359375 C 1.800781 -0.609375 1.578125 -0.957031 1.578125 -1.40625 Z M 1.578125 -1.40625 "/></g></g></g><g fill="#0e3f57" fill-opacity="1"><g transform="translate(98.492212, 244.564246)"><g><path d="M 1.34375 -6.71875 L 1.34375 -14.453125 C 1.34375 -16.828125 1.992188 -18.566406 3.296875 -19.671875 C 4.597656 -20.785156 6.332031 -21.34375 8.5 -21.34375 C 10.675781 -21.34375 12.414062 -20.785156 13.71875 -19.671875 C 15.03125 -18.566406 15.6875 -16.828125 15.6875 -14.453125 L 15.6875 -6.71875 C 15.6875 -4.34375 15.03125 -2.597656 13.71875 -1.484375 C 12.414062 -0.378906 10.675781 0.171875 8.5 0.171875 C 6.332031 0.171875 4.597656 -0.378906 3.296875 -1.484375 C 1.992188 -2.597656 1.34375 -4.34375 1.34375 -6.71875 Z M 5.90625 -6.71875 C 5.90625 -4.769531 6.769531 -3.796875 8.5 -3.796875 C 10.25 -3.796875 11.125 -4.769531 11.125 -6.71875 L 11.125 -14.453125 C 11.125 -16.398438 10.25 -17.375 8.5 -17.375 C 6.769531 -17.375 5.90625 -16.398438 5.90625 -14.453125 Z M 5.90625 -6.71875 "/></g></g></g><g fill="#0e3f57" fill-opacity="1"><g transform="translate(115.506342, 244.564246)"><g><path d="M 1.484375 -6.71875 L 1.484375 -19.96875 C 1.484375 -20.414062 1.703125 -20.753906 2.140625 -20.984375 C 2.578125 -21.222656 3.117188 -21.34375 3.765625 -21.34375 C 4.390625 -21.34375 4.925781 -21.222656 5.375 -20.984375 C 5.820312 -20.753906 6.046875 -20.414062 6.046875 -19.96875 L 6.046875 -6.71875 C 6.046875 -4.769531 6.976562 -3.796875 8.84375 -3.796875 C 10.71875 -3.796875 11.65625 -4.769531 11.65625 -6.71875 L 11.65625 -19.96875 C 11.65625 -20.414062 11.875 -20.753906 12.3125 -20.984375 C 12.75 -21.222656 13.289062 -21.34375 13.9375 -21.34375 C 14.550781 -21.34375 15.082031 -21.222656 15.53125 -20.984375 C 15.976562 -20.753906 16.203125 -20.414062 16.203125 -19.96875 L 16.203125 -6.71875 C 16.203125 -4.34375 15.53125 -2.597656 14.1875 -1.484375 C 12.84375 -0.378906 11.0625 0.171875 8.84375 0.171875 C 6.601562 0.171875 4.816406 -0.378906 3.484375 -1.484375 C 2.148438 -2.597656 1.484375 -4.34375 1.484375 -6.71875 Z M 1.484375 -6.71875 "/></g></g></g><g fill="#0e3f57" fill-opacity="1"><g transform="translate(133.1917, 244.564246)"><g><path d="M 0.5625 -3.5 C 0.5625 -4.050781 0.757812 -4.597656 1.15625 -5.140625 C 1.550781 -5.679688 2.015625 -5.953125 2.546875 -5.953125 C 2.835938 -5.953125 3.160156 -5.835938 3.515625 -5.609375 C 3.878906 -5.390625 4.210938 -5.144531 4.515625 -4.875 C 4.816406 -4.601562 5.238281 -4.351562 5.78125 -4.125 C 6.320312 -3.90625 6.894531 -3.796875 7.5 -3.796875 C 8.257812 -3.796875 8.921875 -3.957031 9.484375 -4.28125 C 10.054688 -4.601562 10.34375 -5.082031 10.34375 -5.71875 C 10.34375 -6.363281 10.023438 -6.925781 9.390625 -7.40625 C 8.753906 -7.894531 7.984375 -8.335938 7.078125 -8.734375 C 6.171875 -9.140625 5.257812 -9.585938 4.34375 -10.078125 C 3.4375 -10.578125 2.664062 -11.285156 2.03125 -12.203125 C 1.394531 -13.117188 1.078125 -14.210938 1.078125 -15.484375 C 1.078125 -17.503906 1.804688 -19.015625 3.265625 -20.015625 C 4.734375 -21.015625 6.5 -21.515625 8.5625 -21.515625 C 9.0625 -21.515625 9.585938 -21.484375 10.140625 -21.421875 C 10.703125 -21.367188 11.328125 -21.257812 12.015625 -21.09375 C 12.703125 -20.925781 13.265625 -20.65625 13.703125 -20.28125 C 14.148438 -19.914062 14.375 -19.472656 14.375 -18.953125 C 14.375 -18.441406 14.210938 -17.914062 13.890625 -17.375 C 13.566406 -16.832031 13.125 -16.5625 12.5625 -16.5625 C 12.320312 -16.5625 11.820312 -16.742188 11.0625 -17.109375 C 10.300781 -17.484375 9.46875 -17.671875 8.5625 -17.671875 C 7.582031 -17.671875 6.847656 -17.5 6.359375 -17.15625 C 5.878906 -16.8125 5.640625 -16.398438 5.640625 -15.921875 C 5.640625 -15.472656 5.867188 -15.0625 6.328125 -14.6875 C 6.785156 -14.320312 7.351562 -14.003906 8.03125 -13.734375 C 8.707031 -13.472656 9.453125 -13.132812 10.265625 -12.71875 C 11.078125 -12.300781 11.820312 -11.84375 12.5 -11.34375 C 13.175781 -10.84375 13.742188 -10.144531 14.203125 -9.25 C 14.660156 -8.351562 14.890625 -7.332031 14.890625 -6.1875 C 14.890625 -4.144531 14.21875 -2.550781 12.875 -1.40625 C 11.53125 -0.269531 9.769531 0.296875 7.59375 0.296875 C 5.707031 0.296875 4.0625 -0.09375 2.65625 -0.875 C 1.257812 -1.65625 0.5625 -2.53125 0.5625 -3.5 Z M 0.5625 -3.5 "/></g></g></g><g fill="#0e3f57" fill-opacity="1"><g transform="translate(148.746652, 244.564246)"><g><path d="M 1.578125 -1.40625 L 1.578125 -19.953125 C 1.578125 -20.398438 1.769531 -20.742188 2.15625 -20.984375 C 2.550781 -21.222656 3.019531 -21.34375 3.5625 -21.34375 L 13.953125 -21.34375 C 14.398438 -21.34375 14.738281 -21.144531 14.96875 -20.75 C 15.207031 -20.363281 15.328125 -19.910156 15.328125 -19.390625 C 15.328125 -18.828125 15.207031 -18.347656 14.96875 -17.953125 C 14.726562 -17.566406 14.390625 -17.375 13.953125 -17.375 L 6.125 -17.375 L 6.125 -12.4375 L 10.515625 -12.4375 C 10.941406 -12.4375 11.273438 -12.257812 11.515625 -11.90625 C 11.765625 -11.5625 11.890625 -11.144531 11.890625 -10.65625 C 11.890625 -10.207031 11.769531 -9.804688 11.53125 -9.453125 C 11.300781 -9.109375 10.960938 -8.9375 10.515625 -8.9375 L 6.125 -8.9375 L 6.125 -3.96875 L 13.953125 -3.96875 C 14.390625 -3.96875 14.726562 -3.769531 14.96875 -3.375 C 15.207031 -2.988281 15.328125 -2.515625 15.328125 -1.953125 C 15.328125 -1.429688 15.207031 -0.972656 14.96875 -0.578125 C 14.738281 -0.191406 14.398438 0 13.953125 0 L 3.5625 0 C 3.019531 0 2.550781 -0.117188 2.15625 -0.359375 C 1.769531 -0.609375 1.578125 -0.957031 1.578125 -1.40625 Z M 1.578125 -1.40625 "/></g></g></g><g fill="#0e3f57" fill-opacity="1"><g transform="translate(164.476705, 244.564246)"><g/></g></g><g fill="#0e3f57" fill-opacity="1"><g transform="translate(170.313452, 244.564246)"><g><path d="M 1.34375 -6.71875 L 1.34375 -14.453125 C 1.34375 -16.828125 1.988281 -18.566406 3.28125 -19.671875 C 4.582031 -20.785156 6.273438 -21.34375 8.359375 -21.34375 C 10.492188 -21.34375 12.25 -20.828125 13.625 -19.796875 C 15 -18.765625 15.6875 -17.34375 15.6875 -15.53125 C 15.6875 -14.695312 15.507812 -14.128906 15.15625 -13.828125 C 14.800781 -13.523438 14.21875 -13.375 13.40625 -13.375 C 11.945312 -13.375 11.1875 -13.832031 11.125 -14.75 C 11.0625 -16.5 10.195312 -17.375 8.53125 -17.375 C 6.78125 -17.375 5.90625 -16.398438 5.90625 -14.453125 L 5.90625 -6.71875 C 5.90625 -4.769531 6.789062 -3.796875 8.5625 -3.796875 C 9.101562 -3.796875 9.550781 -3.882812 9.90625 -4.0625 C 10.269531 -4.238281 10.53125 -4.503906 10.6875 -4.859375 C 10.84375 -5.222656 10.941406 -5.519531 10.984375 -5.75 C 11.035156 -5.988281 11.082031 -6.3125 11.125 -6.71875 C 11.207031 -7.632812 11.957031 -8.09375 13.375 -8.09375 C 14.207031 -8.09375 14.800781 -7.941406 15.15625 -7.640625 C 15.507812 -7.335938 15.6875 -6.765625 15.6875 -5.921875 C 15.6875 -4.035156 15 -2.546875 13.625 -1.453125 C 12.25 -0.367188 10.492188 0.171875 8.359375 0.171875 C 6.273438 0.171875 4.582031 -0.378906 3.28125 -1.484375 C 1.988281 -2.597656 1.34375 -4.34375 1.34375 -6.71875 Z M 1.34375 -6.71875 "/></g></g></g><g fill="#0e3f57" fill-opacity="1"><g transform="translate(186.714733, 244.564246)"><g><path d="M 1.578125 -1.40625 L 1.578125 -19.96875 C 1.578125 -20.414062 1.800781 -20.753906 2.25 -20.984375 C 2.695312 -21.222656 3.234375 -21.34375 3.859375 -21.34375 C 4.484375 -21.34375 5.015625 -21.222656 5.453125 -20.984375 C 5.898438 -20.753906 6.125 -20.414062 6.125 -19.96875 L 6.125 -3.96875 L 12.796875 -3.96875 C 13.203125 -3.96875 13.519531 -3.769531 13.75 -3.375 C 13.988281 -2.988281 14.109375 -2.523438 14.109375 -1.984375 C 14.109375 -1.441406 13.988281 -0.972656 13.75 -0.578125 C 13.519531 -0.191406 13.203125 0 12.796875 0 L 3.5625 0 C 3.019531 0 2.550781 -0.117188 2.15625 -0.359375 C 1.769531 -0.609375 1.578125 -0.957031 1.578125 -1.40625 Z M 1.578125 -1.40625 "/></g></g></g><g fill="#0e3f57" fill-opacity="1"><g transform="translate(201.073151, 244.564246)"><g><path d="M 1.578125 -1.40625 L 1.578125 -19.953125 C 1.578125 -20.398438 1.769531 -20.742188 2.15625 -20.984375 C 2.550781 -21.222656 3.019531 -21.34375 3.5625 -21.34375 L 13.953125 -21.34375 C 14.398438 -21.34375 14.738281 -21.144531 14.96875 -20.75 C 15.207031 -20.363281 15.328125 -19.910156 15.328125 -19.390625 C 15.328125 -18.828125 15.207031 -18.347656 14.96875 -17.953125 C 14.726562 -17.566406 14.390625 -17.375 13.953125 -17.375 L 6.125 -17.375 L 6.125 -12.4375 L 10.515625 -12.4375 C 10.941406 -12.4375 11.273438 -12.257812 11.515625 -11.90625 C 11.765625 -11.5625 11.890625 -11.144531 11.890625 -10.65625 C 11.890625 -10.207031 11.769531 -9.804688 11.53125 -9.453125 C 11.300781 -9.109375 10.960938 -8.9375 10.515625 -8.9375 L 6.125 -8.9375 L 6.125 -3.96875 L 13.953125 -3.96875 C 14.390625 -3.96875 14.726562 -3.769531 14.96875 -3.375 C 15.207031 -2.988281 15.328125 -2.515625 15.328125 -1.953125 C 15.328125 -1.429688 15.207031 -0.972656 14.96875 -0.578125 C 14.738281 -0.191406 14.398438 0 13.953125 0 L 3.5625 0 C 3.019531 0 2.550781 -0.117188 2.15625 -0.359375 C 1.769531 -0.609375 1.578125 -0.957031 1.578125 -1.40625 Z M 1.578125 -1.40625 "/></g></g></g><g fill="#0e3f57" fill-opacity="1"><g transform="translate(216.803205, 244.564246)"><g><path d="M 0.109375 -1.875 C 0.109375 -1.925781 0.128906 -2.03125 0.171875 -2.1875 L 5.609375 -20 C 5.765625 -20.488281 6.117188 -20.863281 6.671875 -21.125 C 7.222656 -21.382812 7.859375 -21.515625 8.578125 -21.515625 C 9.304688 -21.515625 9.945312 -21.382812 10.5 -21.125 C 11.050781 -20.863281 11.40625 -20.488281 11.5625 -20 L 17.03125 -2.1875 C 17.0625 -2.03125 17.078125 -1.925781 17.078125 -1.875 C 17.078125 -1.363281 16.757812 -0.921875 16.125 -0.546875 C 15.5 -0.179688 14.84375 0 14.15625 0 C 13.320312 0 12.828125 -0.28125 12.671875 -0.84375 L 11.6875 -4.5 L 5.515625 -4.5 L 4.53125 -0.84375 C 4.375 -0.28125 3.875 0 3.03125 0 C 2.351562 0 1.695312 -0.179688 1.0625 -0.546875 C 0.425781 -0.921875 0.109375 -1.363281 0.109375 -1.875 Z M 6.453125 -8 L 10.71875 -8 L 8.578125 -15.828125 Z M 6.453125 -8 "/></g></g></g><g fill="#0e3f57" fill-opacity="1"><g transform="translate(233.992438, 244.564246)"><g><path d="M 1.578125 -1.40625 L 1.578125 -19.953125 C 1.578125 -20.398438 1.800781 -20.742188 2.25 -20.984375 C 2.695312 -21.222656 3.234375 -21.34375 3.859375 -21.34375 C 4.734375 -21.34375 5.378906 -21.21875 5.796875 -20.96875 C 6.210938 -20.71875 6.6875 -20.082031 7.21875 -19.0625 L 11.9375 -10.046875 L 11.9375 -19.96875 C 11.9375 -20.414062 12.160156 -20.753906 12.609375 -20.984375 C 13.054688 -21.222656 13.59375 -21.34375 14.21875 -21.34375 C 14.84375 -21.34375 15.378906 -21.222656 15.828125 -20.984375 C 16.273438 -20.753906 16.5 -20.414062 16.5 -19.96875 L 16.5 -1.40625 C 16.5 -0.957031 16.273438 -0.609375 15.828125 -0.359375 C 15.378906 -0.117188 14.84375 0 14.21875 0 C 12.976562 0 12.132812 -0.40625 11.6875 -1.21875 L 6.125 -11.328125 L 6.125 -1.40625 C 6.125 -0.957031 5.898438 -0.609375 5.453125 -0.359375 C 5.015625 -0.117188 4.484375 0 3.859375 0 C 3.234375 0 2.695312 -0.117188 2.25 -0.359375 C 1.800781 -0.609375 1.578125 -0.957031 1.578125 -1.40625 Z M 1.578125 -1.40625 "/></g></g></g><g fill="#0e3f57" fill-opacity="1"><g transform="translate(252.057181, 244.564246)"><g><path d="M 1.578125 -1.40625 L 1.578125 -19.96875 C 1.578125 -20.414062 1.800781 -20.753906 2.25 -20.984375 C 2.695312 -21.222656 3.234375 -21.34375 3.859375 -21.34375 C 4.484375 -21.34375 5.015625 -21.222656 5.453125 -20.984375 C 5.898438 -20.753906 6.125 -20.414062 6.125 -19.96875 L 6.125 -1.40625 C 6.125 -0.957031 5.898438 -0.609375 5.453125 -0.359375 C 5.015625 -0.117188 4.484375 0 3.859375 0 C 3.234375 0 2.695312 -0.117188 2.25 -0.359375 C 1.800781 -0.609375 1.578125 -0.957031 1.578125 -1.40625 Z M 1.578125 -1.40625 "/></g></g></g><g fill="#0e3f57" fill-opacity="1"><g transform="translate(259.761689, 244.564246)"><g><path d="M 1.578125 -1.40625 L 1.578125 -19.953125 C 1.578125 -20.398438 1.800781 -20.742188 2.25 -20.984375 C 2.695312 -21.222656 3.234375 -21.34375 3.859375 -21.34375 C 4.734375 -21.34375 5.378906 -21.21875 5.796875 -20.96875 C 6.210938 -20.71875 6.6875 -20.082031 7.21875 -19.0625 L 11.9375 -10.046875 L 11.9375 -19.96875 C 11.9375 -20.414062 12.160156 -20.753906 12.609375 -20.984375 C 13.054688 -21.222656 13.59375 -21.34375 14.21875 -21.34375 C 14.84375 -21.34375 15.378906 -21.222656 15.828125 -20.984375 C 16.273438 -20.753906 16.5 -20.414062 16.5 -19.96875 L 16.5 -1.40625 C 16.5 -0.957031 16.273438 -0.609375 15.828125 -0.359375 C 15.378906 -0.117188 14.84375 0 14.21875 0 C 12.976562 0 12.132812 -0.40625 11.6875 -1.21875 L 6.125 -11.328125 L 6.125 -1.40625 C 6.125 -0.957031 5.898438 -0.609375 5.453125 -0.359375 C 5.015625 -0.117188 4.484375 0 3.859375 0 C 3.234375 0 2.695312 -0.117188 2.25 -0.359375 C 1.800781 -0.609375 1.578125 -0.957031 1.578125 -1.40625 Z M 1.578125 -1.40625 "/></g></g></g><g fill="#0e3f57" fill-opacity="1"><g transform="translate(277.826431, 244.564246)"><g><path d="M 1.34375 -6.71875 L 1.34375 -14.453125 C 1.34375 -16.828125 1.988281 -18.566406 3.28125 -19.671875 C 4.582031 -20.785156 6.273438 -21.34375 8.359375 -21.34375 C 10.492188 -21.34375 12.25 -20.828125 13.625 -19.796875 C 15 -18.765625 15.6875 -17.34375 15.6875 -15.53125 C 15.6875 -14.695312 15.507812 -14.128906 15.15625 -13.828125 C 14.800781 -13.523438 14.21875 -13.375 13.40625 -13.375 C 11.90625 -13.375 11.144531 -13.832031 11.125 -14.75 C 11.125 -15.019531 11.113281 -15.25 11.09375 -15.4375 C 11.070312 -15.625 11.015625 -15.851562 10.921875 -16.125 C 10.828125 -16.394531 10.691406 -16.609375 10.515625 -16.765625 C 10.335938 -16.921875 10.078125 -17.0625 9.734375 -17.1875 C 9.398438 -17.3125 9 -17.375 8.53125 -17.375 C 6.78125 -17.375 5.90625 -16.398438 5.90625 -14.453125 L 5.90625 -6.71875 C 5.90625 -4.769531 6.769531 -3.796875 8.5 -3.796875 C 10.25 -3.796875 11.125 -4.769531 11.125 -6.71875 L 11.125 -7.703125 L 9.40625 -7.703125 C 8.976562 -7.703125 8.640625 -7.875 8.390625 -8.21875 C 8.148438 -8.5625 8.03125 -8.976562 8.03125 -9.46875 C 8.03125 -9.914062 8.15625 -10.316406 8.40625 -10.671875 C 8.664062 -11.035156 9 -11.21875 9.40625 -11.21875 L 14.3125 -11.21875 C 14.738281 -11.21875 15.070312 -11.070312 15.3125 -10.78125 C 15.5625 -10.5 15.6875 -10.164062 15.6875 -9.78125 L 15.6875 -6.71875 C 15.6875 -4.34375 15.03125 -2.597656 13.71875 -1.484375 C 12.414062 -0.378906 10.675781 0.171875 8.5 0.171875 C 6.332031 0.171875 4.597656 -0.378906 3.296875 -1.484375 C 1.992188 -2.597656 1.34375 -4.34375 1.34375 -6.71875 Z M 1.34375 -6.71875 "/></g></g></g><g fill="#0e3f57" fill-opacity="1"><g transform="translate(138.2569, 261.644878)"><g><path d="M 5.289062 0.117188 C 6.992188 0.117188 8.476562 -0.816406 9.261719 -2.191406 L 8.445312 -2.652344 C 7.839844 -1.554688 6.652344 -0.828125 5.289062 -0.828125 C 3.289062 -0.828125 1.675781 -2.429688 1.675781 -4.445312 C 1.675781 -6.460938 3.289062 -8.058594 5.289062 -8.058594 C 6.652344 -8.058594 7.839844 -7.335938 8.445312 -6.238281 L 9.261719 -6.699219 C 8.476562 -8.074219 6.992188 -9.007812 5.289062 -9.007812 C 2.769531 -9.007812 0.726562 -6.964844 0.726562 -4.445312 C 0.726562 -1.925781 2.769531 0.117188 5.289062 0.117188 Z M 5.289062 0.117188 "/></g></g></g><g fill="#0e3f57" fill-opacity="1"><g transform="translate(148.006594, 261.644878)"><g><path d="M 1.082031 0 L 2 0 L 2 -10.90625 L 1.082031 -10.90625 Z M 1.082031 0 "/></g></g></g><g fill="#0e3f57" fill-opacity="1"><g transform="translate(151.088567, 261.644878)"><g><path d="M 6.832031 -3.023438 C 6.785156 -4.726562 5.4375 -6.046875 3.75 -6.046875 C 2.042969 -6.046875 0.667969 -4.667969 0.667969 -2.964844 C 0.667969 -1.257812 2.042969 0.117188 3.75 0.117188 C 5.15625 0.117188 6.328125 -0.816406 6.710938 -2.089844 L 5.734375 -2.089844 C 5.410156 -1.320312 4.636719 -0.800781 3.75 -0.800781 C 2.578125 -0.800781 1.644531 -1.6875 1.585938 -2.828125 L 6.816406 -2.828125 Z M 3.75 -5.125 C 4.695312 -5.125 5.496094 -4.519531 5.777344 -3.660156 L 1.703125 -3.660156 C 2 -4.519531 2.800781 -5.125 3.75 -5.125 Z M 3.75 -5.125 "/></g></g></g><g fill="#0e3f57" fill-opacity="1"><g transform="translate(158.526789, 261.644878)"><g><path d="M 7.4375 -0.769531 C 7.113281 -0.769531 6.832031 -0.992188 6.832031 -1.539062 L 6.832031 -5.925781 L 5.910156 -5.925781 L 5.910156 -5.15625 C 5.363281 -5.703125 4.59375 -6.046875 3.75 -6.046875 C 2.042969 -6.046875 0.667969 -4.667969 0.667969 -2.964844 C 0.667969 -1.257812 2.042969 0.117188 3.75 0.117188 C 4.636719 0.117188 5.4375 -0.296875 6 -0.902344 C 6.195312 -0.296875 6.667969 0.117188 7.363281 0.117188 C 7.527344 0.117188 7.691406 0.0742188 7.808594 0 L 7.808594 -0.769531 Z M 3.75 -0.800781 C 2.546875 -0.800781 1.585938 -1.761719 1.585938 -2.964844 C 1.585938 -4.164062 2.546875 -5.125 3.75 -5.125 C 4.933594 -5.125 5.910156 -4.164062 5.910156 -2.964844 C 5.910156 -1.761719 4.933594 -0.800781 3.75 -0.800781 Z M 3.75 -0.800781 "/></g></g></g><g fill="#0e3f57" fill-opacity="1"><g transform="translate(166.513234, 261.644878)"><g><path d="M 3.4375 -6.046875 C 2.890625 -6.046875 2.386719 -5.824219 2 -5.453125 L 2 -5.925781 L 1.082031 -5.925781 L 1.082031 0 L 2 0 L 2 -3.777344 C 2 -4.535156 2.609375 -5.125 3.363281 -5.125 C 4.121094 -5.125 4.710938 -4.535156 4.710938 -3.777344 L 4.710938 0 L 5.628906 0 L 5.628906 -3.777344 C 5.628906 -5.039062 4.578125 -6.046875 3.4375 -6.046875 Z M 3.4375 -6.046875 "/></g></g></g><g fill="#0e3f57" fill-opacity="1"><g transform="translate(173.151322, 261.644878)"><g><path d="M 1.660156 -7.039062 C 2 -7.039062 2.296875 -7.320312 2.296875 -7.660156 C 2.296875 -8.03125 2 -8.296875 1.660156 -8.296875 C 1.304688 -8.296875 1.007812 -8.03125 1.007812 -7.660156 C 1.007812 -7.320312 1.304688 -7.039062 1.660156 -7.039062 Z M 1.199219 0 L 2.117188 0 L 2.117188 -5.925781 L 1.199219 -5.925781 Z M 1.199219 0 "/></g></g></g><g fill="#0e3f57" fill-opacity="1"><g transform="translate(176.455543, 261.644878)"><g><path d="M 3.4375 -6.046875 C 2.890625 -6.046875 2.386719 -5.824219 2 -5.453125 L 2 -5.925781 L 1.082031 -5.925781 L 1.082031 0 L 2 0 L 2 -3.777344 C 2 -4.535156 2.609375 -5.125 3.363281 -5.125 C 4.121094 -5.125 4.710938 -4.535156 4.710938 -3.777344 L 4.710938 0 L 5.628906 0 L 5.628906 -3.777344 C 5.628906 -5.039062 4.578125 -6.046875 3.4375 -6.046875 Z M 3.4375 -6.046875 "/></g></g></g><g fill="#0e3f57" fill-opacity="1"><g transform="translate(183.093631, 261.644878)"><g><path d="M 5.898438 -5.925781 L 5.898438 -5.1875 C 5.347656 -5.71875 4.578125 -6.046875 3.75 -6.046875 C 2.042969 -6.046875 0.667969 -4.683594 0.667969 -2.964844 C 0.667969 -1.257812 2.042969 0.117188 3.75 0.117188 C 4.59375 0.117188 5.347656 -0.222656 5.910156 -0.769531 L 5.910156 0.519531 C 5.910156 1.703125 4.933594 2.683594 3.75 2.683594 C 2.785156 2.683594 1.96875 2.042969 1.6875 1.183594 L 0.84375 1.554688 C 1.273438 2.757812 2.414062 3.601562 3.75 3.601562 C 5.453125 3.601562 6.832031 2.222656 6.832031 0.519531 L 6.832031 -5.925781 Z M 3.75 -0.800781 C 2.546875 -0.800781 1.585938 -1.777344 1.585938 -2.964844 C 1.585938 -4.164062 2.546875 -5.125 3.75 -5.125 C 4.933594 -5.125 5.910156 -4.164062 5.910156 -2.964844 C 5.910156 -1.777344 4.933594 -0.800781 3.75 -0.800781 Z M 3.75 -0.800781 "/></g></g></g><g fill="#0e3f57" fill-opacity="1"><g transform="translate(191.005994, 261.644878)"><g/></g></g><g fill="#0e3f57" fill-opacity="1"><g transform="translate(194.576925, 261.644878)"><g><path d="M 3.320312 0.117188 C 4.832031 0.117188 6.058594 -0.785156 6.058594 -2.339844 C 6.058594 -5.363281 1.734375 -4.621094 1.734375 -6.742188 C 1.734375 -7.628906 2.460938 -8.058594 3.289062 -8.058594 C 3.972656 -8.058594 4.535156 -7.777344 4.890625 -7.273438 L 5.628906 -7.898438 C 5.140625 -8.519531 4.28125 -9.007812 3.257812 -9.007812 C 1.898438 -9.007812 0.785156 -8.121094 0.785156 -6.667969 C 0.785156 -3.808594 5.113281 -4.519531 5.113281 -2.3125 C 5.113281 -1.363281 4.328125 -0.828125 3.332031 -0.828125 C 2.328125 -0.828125 1.601562 -1.378906 1.289062 -2.191406 L 0.429688 -1.6875 C 0.890625 -0.59375 2 0.117188 3.320312 0.117188 Z M 3.320312 0.117188 "/></g></g></g><g fill="#0e3f57" fill-opacity="1"><g transform="translate(201.066849, 261.644878)"><g><path d="M 6.832031 -3.023438 C 6.785156 -4.726562 5.4375 -6.046875 3.75 -6.046875 C 2.042969 -6.046875 0.667969 -4.667969 0.667969 -2.964844 C 0.667969 -1.257812 2.042969 0.117188 3.75 0.117188 C 5.15625 0.117188 6.328125 -0.816406 6.710938 -2.089844 L 5.734375 -2.089844 C 5.410156 -1.320312 4.636719 -0.800781 3.75 -0.800781 C 2.578125 -0.800781 1.644531 -1.6875 1.585938 -2.828125 L 6.816406 -2.828125 Z M 3.75 -5.125 C 4.695312 -5.125 5.496094 -4.519531 5.777344 -3.660156 L 1.703125 -3.660156 C 2 -4.519531 2.800781 -5.125 3.75 -5.125 Z M 3.75 -5.125 "/></g></g></g><g fill="#0e3f57" fill-opacity="1"><g transform="translate(208.505071, 261.644878)"><g><path d="M 3.972656 -6.046875 C 3.125 -6.046875 2.445312 -5.675781 2 -5.082031 L 2 -5.925781 L 1.082031 -5.925781 L 1.082031 0 L 2 0 L 2 -3.214844 C 2 -4.296875 2.890625 -5.125 3.972656 -5.125 C 4.148438 -5.125 4.296875 -5.113281 4.429688 -5.066406 L 4.429688 -6 C 4.296875 -6.03125 4.148438 -6.046875 3.972656 -6.046875 Z M 3.972656 -6.046875 "/></g></g></g><g fill="#0e3f57" fill-opacity="1"><g transform="translate(213.009484, 261.644878)"><g><path d="M 4.785156 -5.925781 L 2.964844 -1.066406 L 1.125 -5.925781 L 0.132812 -5.925781 L 2.503906 0 L 3.394531 0 L 5.777344 -5.925781 Z M 4.785156 -5.925781 "/></g></g></g><g fill="#0e3f57" fill-opacity="1"><g transform="translate(218.921535, 261.644878)"><g><path d="M 1.660156 -7.039062 C 2 -7.039062 2.296875 -7.320312 2.296875 -7.660156 C 2.296875 -8.03125 2 -8.296875 1.660156 -8.296875 C 1.304688 -8.296875 1.007812 -8.03125 1.007812 -7.660156 C 1.007812 -7.320312 1.304688 -7.039062 1.660156 -7.039062 Z M 1.199219 0 L 2.117188 0 L 2.117188 -5.925781 L 1.199219 -5.925781 Z M 1.199219 0 "/></g></g></g><g fill="#0e3f57" fill-opacity="1"><g transform="translate(222.225756, 261.644878)"><g><path d="M 3.75 0.117188 C 5.125 0.117188 6.28125 -0.769531 6.683594 -2.015625 L 5.703125 -2.015625 C 5.347656 -1.289062 4.609375 -0.800781 3.75 -0.800781 C 2.546875 -0.800781 1.585938 -1.75 1.585938 -2.964844 C 1.585938 -4.179688 2.546875 -5.125 3.75 -5.125 C 4.609375 -5.125 5.347656 -4.636719 5.703125 -3.910156 L 6.683594 -3.910156 C 6.28125 -5.15625 5.125 -6.046875 3.75 -6.046875 C 2.042969 -6.046875 0.667969 -4.667969 0.667969 -2.964844 C 0.667969 -1.257812 2.042969 0.117188 3.75 0.117188 Z M 3.75 0.117188 "/></g></g></g><g fill="#0e3f57" fill-opacity="1"><g transform="translate(229.293536, 261.644878)"><g><path d="M 6.832031 -3.023438 C 6.785156 -4.726562 5.4375 -6.046875 3.75 -6.046875 C 2.042969 -6.046875 0.667969 -4.667969 0.667969 -2.964844 C 0.667969 -1.257812 2.042969 0.117188 3.75 0.117188 C 5.15625 0.117188 6.328125 -0.816406 6.710938 -2.089844 L 5.734375 -2.089844 C 5.410156 -1.320312 4.636719 -0.800781 3.75 -0.800781 C 2.578125 -0.800781 1.644531 -1.6875 1.585938 -2.828125 L 6.816406 -2.828125 Z M 3.75 -5.125 C 4.695312 -5.125 5.496094 -4.519531 5.777344 -3.660156 L 1.703125 -3.660156 C 2 -4.519531 2.800781 -5.125 3.75 -5.125 Z M 3.75 -5.125 "/></g></g></g></svg>