<?xml version="1.0" standalone="no"?>
<svg xmlns:xlink="http://www.w3.org/1999/xlink" id="wave" style="transform:rotate(0deg); transition: 0.3s" viewBox="0 0 1440 290" version="1.1" xmlns="http://www.w3.org/2000/svg"><defs><linearGradient id="sw-gradient-0" x1="0" x2="0" y1="1" y2="0"><stop stop-color="rgba(14, 63, 87, 1)" offset="0%"/><stop stop-color="rgba(14, 63, 87, 1)" offset="100%"/></linearGradient></defs><path style="transform:translate(0, 0px); opacity:1" fill="url(#sw-gradient-0)" d="M0,0L80,29C160,58,320,116,480,116C640,116,800,58,960,72.5C1120,87,1280,174,1440,193.3C1600,213,1760,164,1920,140.2C2080,116,2240,116,2400,120.8C2560,126,2720,135,2880,120.8C3040,106,3200,68,3360,67.7C3520,68,3680,106,3840,130.5C4000,155,4160,164,4320,183.7C4480,203,4640,232,4800,222.3C4960,213,5120,164,5280,140.2C5440,116,5600,116,5760,116C5920,116,6080,116,6240,101.5C6400,87,6560,58,6720,58C6880,58,7040,87,7200,125.7C7360,164,7520,213,7680,227.2C7840,242,8000,222,8160,188.5C8320,155,8480,106,8640,91.8C8800,77,8960,97,9120,101.5C9280,106,9440,97,9600,111.2C9760,126,9920,164,10080,174C10240,184,10400,164,10560,159.5C10720,155,10880,164,11040,140.2C11200,116,11360,58,11440,29L11520,0L11520,290L11440,290C11360,290,11200,290,11040,290C10880,290,10720,290,10560,290C10400,290,10240,290,10080,290C9920,290,9760,290,9600,290C9440,290,9280,290,9120,290C8960,290,8800,290,8640,290C8480,290,8320,290,8160,290C8000,290,7840,290,7680,290C7520,290,7360,290,7200,290C7040,290,6880,290,6720,290C6560,290,6400,290,6240,290C6080,290,5920,290,5760,290C5600,290,5440,290,5280,290C5120,290,4960,290,4800,290C4640,290,4480,290,4320,290C4160,290,4000,290,3840,290C3680,290,3520,290,3360,290C3200,290,3040,290,2880,290C2720,290,2560,290,2400,290C2240,290,2080,290,1920,290C1760,290,1600,290,1440,290C1280,290,1120,290,960,290C800,290,640,290,480,290C320,290,160,290,80,290L0,290Z"/></svg>